<?xml version="1.0" standalone="no"?>
<!DOCTYPE svg PUBLIC "-//W3C//DTD SVG 1.1//EN" "http://www.w3.org/Graphics/SVG/1.1/DTD/svg11.dtd" >
<svg xmlns="http://www.w3.org/2000/svg">
<metadata>Generated by IcoMoon</metadata>
<defs>
<font id="fa6-sharp-light" horiz-adv-x="1024">
<font-face units-per-em="1024" ascent="960" descent="-64" />
<missing-glyph horiz-adv-x="1024" />
<glyph unicode="&#x20;" horiz-adv-x="512" d="" />
<glyph unicode="&#xe900;" glyph-name="00" horiz-adv-x="1280" d="M288 896c-159 0-288-129-288-288v-320c0-159 129-288 288-288s288 129 288 288v320c0 159-129 288-288 288zM64 608c0 123.8 100.2 224 224 224s224-100.2 224-224v-320c0-123.8-100.2-224-224-224s-224 100.2-224 224v320zM992 896c-159 0-288-129-288-288v-320c0-159 129-288 288-288s288 129 288 288v320c0 159-129 288-288 288zM768 608c0 123.8 100.2 224 224 224s224-100.2 224-224v-320c0-123.8-100.2-224-224-224s-224 100.2-224 224v320z" />
<glyph unicode="&#xe901;" glyph-name="0" horiz-adv-x="640" d="M0 576c0 176.8 143.2 320 320 320s320-143.2 320-320v-256c0-176.8-143.2-320-320-320s-320 143.2-320 320v256zM320 832c-141.4 0-256-114.6-256-256v-256c0-141.4 114.6-256 256-256s256 114.6 256 256v256c0 141.4-114.6 256-256 256z" />
<glyph unicode="&#xe902;" glyph-name="1" horiz-adv-x="512" d="M32 673.2l6.8 5 185.2 134.6v-748.8h-224v-64h512v64h-224v832h-58.4l-8.4-6.2-189.2-137.6v-79.2z" />
<glyph unicode="&#xe903;" glyph-name="2" horiz-adv-x="640" d="M141.8 768.4c40.6 40.6 96.6 63.6 154.2 63.6 118.4 0 216-96 216-213.6 0-59-24.4-115.4-67.6-155.8l-444.4-416.8v-45.8h640v64h-527l375.2 351.8c56 52.4 87.8 125.8 87.8 202.6 0 153.8-127 277.6-280 277.6-74.4 0-146.8-29.6-199.6-82.2l-55-55.2-22.6-22.6 45.2-45.2 22.6 22.6 55.2 55z" />
<glyph unicode="&#xe904;" glyph-name="3" horiz-adv-x="640" d="M608 896v-46l-10.2-9.6-356-328.4h142.2c141.4 0 256-114.6 256-256s-114.6-256-256-256h-198.4c-76.8 0-146.2 45.8-176.4 116.4l-6.4 15 58.8 25.2 6.4-15c20-47 66.2-77.6 117.6-77.6h198.4c106 0 192 86 192 192s-86 192-192 192h-256v46l10.2 9.6 356 328.4h-494.2v64h608z" />
<glyph unicode="&#xe905;" glyph-name="4" horiz-adv-x="768" d="M22.2 301.6l277.4 594.4h70.6l-268.8-576h474.6v384h64v-384h128v-64h-128v-256h-64v256h-575l21.2 45.6z" />
<glyph unicode="&#xe906;" glyph-name="5" horiz-adv-x="640" d="M102.4 896h473.6v-64h-422.4l-72-320h302.4c141.4 0 256-114.6 256-256s-114.6-256-256-256h-209c-70.4 0-134 42-161.8 106.6l-10.6 24.8 58.8 25.2 10.6-24.8c17.6-41 58.2-67.8 103-67.8h209c106 0 192 86 192 192s-86 192-192 192h-382.4l8.8 39 86.4 384 5.6 25z" />
<glyph unicode="&#xe907;" glyph-name="6" horiz-adv-x="640" d="M401.6 896l-319.2-359c-50.4-56.8-79.4-129.4-82.2-205.2-0.2-4-0.2-7.8-0.2-11.8 0-176.8 143.2-320 320-320s320 143.2 320 320-143.2 320-320 320c-22.8 0-45-2.4-66.4-7l233.6 263h-85.6zM320 64c-141.4 0-256 114.6-256 256 0 2 0 4 0 6.2 3.4 138.4 116.6 249.8 256 249.8 141.4 0 256-114.6 256-256s-114.6-256-256-256z" />
<glyph unicode="&#xe908;" glyph-name="7" horiz-adv-x="640" d="M608 896h32v-40.8l-4.6-7.6-507-847.6h-74.6l497.8 832h-551.6v64h608z" />
<glyph unicode="&#xe909;" glyph-name="8" horiz-adv-x="640" d="M608 656c0 132.6-107.4 240-240 240h-96c-132.6 0-240-107.4-240-240 0-82.8 41.8-155.8 105.6-198.8-81.4-38.4-137.6-121.2-137.6-217.2 0-132.6 107.4-240 240-240h160c132.6 0 240 107.4 240 240 0 96-56.2 178.8-137.6 217.2 63.8 43 105.6 116 105.6 198.8zM368.2 416h31.8c97.2 0 176-78.8 176-176s-78.8-176-176-176h-160c-97.2 0-176 78.8-176 176s78.8 176 176 176h31.8c0 0 0.2 0 0.2 0h96c0 0 0 0 0.2 0zM368.2 480c0 0 0 0-0.2 0h-96c0 0 0 0-0.2 0-97 0-175.8 78.8-175.8 176s78.8 176 176 176h96c97.2 0 176-78.8 176-176s-78.8-176-175.8-176z" />
<glyph unicode="&#xe90a;" glyph-name="9" horiz-adv-x="640" d="M238.4 0l319.2 359c50.6 56.8 79.6 129.4 82.2 205.2 0.2 4 0.2 7.8 0.2 11.8 0 176.8-143.2 320-320 320s-320-143.2-320-320 143.2-320 320-320c22.8 0 45 2.4 66.4 7l-233.6-263h85.6zM320 832c141.4 0 256-114.6 256-256 0-2 0-4 0-6.2-3.4-138.4-116.6-249.8-256-249.8-141.4 0-256 114.6-256 256s114.6 256 256 256z" />
<glyph unicode="&#xe90b;" glyph-name="degrees" horiz-adv-x="1280" d="M1280 896c0 35.346-28.654 64-64 64s-64-28.654-64-64v0c0-35.346 28.654-64 64-64s64 28.654 64 64v0zM1088 224c0-53-43-96-96-96s-96 43-96 96v448c0 53 43 96 96 96s96-43 96-96v-448zM992 832c-88.4 0-160-71.6-160-160v-448c0-88.4 71.6-160 160-160s160 71.6 160 160v448c0 88.4-71.6 160-160 160zM674.2 825.4v0 0h-0.8c-0.6 0-1.2-0.2-2.2-0.4-1.8-0.4-4.4-0.8-7.6-1.4-6.2-1.2-15-3.4-25.4-6.4-20.6-6.2-48.4-17-76.4-35.4-57.2-37.6-113.8-105.4-113.8-221.8v-336c0-88.4 71.6-160 160-160s160 71.6 160 160v192c0 88.4-71.6 160-160 160-36 0-69.2-12-96-32v16c0 91.6 42.6 140.6 84.8 168 21.6 14.2 43.4 22.6 60 27.8 8.2 2.4 15 4 19.6 5 2.2 0.4 4 0.8 5 1l1.2 0.2h0.2l31.6 4-8.4 63.4-31.8-4 4-31.8c-4 31.8-4.2 31.8-4.2 31.8zM512 224v192c0 53 43 96 96 96s96-43 96-96v-192c0-53-43-96-96-96s-96 43-96 96zM352 789v43h-352v-64h254.6l-190.6-245v-43h96c88.4 0 160-71.6 160-160v-32c0-88.4-71.6-160-160-160-31.2 0-56.8 12.4-75.2 25.8-9.2 6.6-16.2 13.4-21 18.2-2.4 2.4-4 4.4-5.2 5.6-0.6 0.6-0.8 1-1 1.4l-0.2 0.2s0 0-25.6-19.2-25.6-19.2-25.6-19.2v0 0-0.2l0.2-0.4 0.6-0.8c0.6-0.6 1.2-1.6 2.2-2.8 1.8-2.2 4.6-5.2 8-8.8 6.8-7 16.8-16.4 29.6-25.8 26-18.4 64.4-38 113.2-38 123.8 0 224 100.2 224 224v32c0 123.2-99.6 223.2-222.6 224l190.6 245z" />
<glyph unicode="&#xe90c;" glyph-name="a" horiz-adv-x="768" d="M362.4 896h43.4l8-20.2 350.2-875.8h-68.8l-76.8 192h-468.8l-76.8-192h-68.8l358.2 896zM384 777.8l-208.8-521.8h417.6l-208.8 521.8z" />
<glyph unicode="&#xe90d;" glyph-name="abacus" horiz-adv-x="1152" d="M1088 832v-256h-192v64h64v64h-64v128h192zM832 704h-64v-64h64v-64h-256v64h64v64h-64v128h256v-128zM512 704h-64v-64h64v-64h-192v64h64v64h-64v128h192v-128zM256 704h-64v-64h64v-64h-192v256h192v-128zM64 64v448h192v-128h-64v-64h64v-64h-64v-64h64v-128h-192zM320 192h64v64h-64v64h64v64h-64v128h192v-128h-64v-64h64v-64h-64v-64h64v-128h-192v128zM576 320h64v64h-64v128h256v-256h-64v-64h64v-128h-256v128h64v64h-64v64zM896 192h64v64h-64v256h192v-448h-192v128zM64 896h-64v-896h1152v896h-1088z" />
<glyph unicode="&#xe90e;" glyph-name="accent-grave" horiz-adv-x="384" d="M128 804.4l161.2-228.4h18.4l-57.2 320h-122.4v-91.6zM304 960l68.6-384 11.4-64h-128l-192 272v176h240z" />
<glyph unicode="&#xe90f;" glyph-name="acorn" horiz-adv-x="896" d="M526.8 897.6l7.8 7.8-45.2 45.2-7.8-7.8c-30.6-30.6-51.4-69.2-60.6-110.8h-229c-106 0-192-86-192-192v-96h896v96c0 106-86 192-192 192h-216.8c7.6 24.6 21.2 47.2 39.6 65.6zM704 768c70.6 0 128-57.4 128-128v-32h-768v32c0 70.6 57.4 128 128 128h512zM96.8 480c8.4-160.2 81.8-390.2 351.2-480 269.4 89.8 342.8 319.8 351.2 480h-64c-8-141.2-70.8-330.2-287-412-216.6 81.8-279.4 270.8-287.2 412h-64z" />
<glyph unicode="&#xe910;" glyph-name="address-book" d="M128 896v-896h704v896h-704zM64 960h832v-1024h-832v1024zM1024 832v-192h-64v192h64zM1024 576v-192h-64v192h64zM1024 288v-160h-64v192h64v-32zM544 576c0 35.346-28.654 64-64 64s-64-28.654-64-64v0c0-35.346 28.654-64 64-64s64 28.654 64 64v0zM352 576c0 70.692 57.308 128 128 128s128-57.308 128-128v0c0-70.692-57.308-128-128-128s-128 57.308-128 128v0zM366.2 320l-42.6-128h-67.6l64 192h320l64-192h-67.4l-42.6 128h-227.8z" />
<glyph unicode="&#xe911;" glyph-name="address-card" horiz-adv-x="1152" d="M1088 832v-768h-1024v768h1024zM64 896h-64v-896h1152v896h-1088zM320 576c0 35.346 28.654 64 64 64s64-28.654 64-64v0c0-35.346-28.654-64-64-64s-64 28.654-64 64v0zM512 576c0 70.692-57.308 128-128 128s-128-57.308-128-128v0c0-70.692 57.308-128 128-128s128 57.308 128 128v0zM270.2 320h227.6l42.6-128h67.6l-64 192h-320l-64-192h67.4l42.6 128zM704 640h-32v-64h320v64h-288zM704 512h-32v-64h320v64h-288zM704 384h-32v-64h320v64h-288z" />
<glyph unicode="&#xe912;" glyph-name="air-conditioner" horiz-adv-x="1152" d="M64 896v-384h1024v384h-1024zM0 960h1152v-512h-1152v512zM224 704h736v-64h-768v64h32zM512 384v-288c0-88.4-71.6-160-160-160s-160 71.6-160 160c0 59.2 32.2 111 80 138.6l32-55.4c-28.8-16.6-48-47.6-48-83.2 0-53 43-96 96-96s96 43 96 96v288h64zM640 160v224h64v-224c0-53 43-96 96-96s96 43 96 96c0 35.4-19.2 66.6-48 83.2l32 55.4c47.8-27.6 80-79.4 80-138.6 0-88.4-71.6-160-160-160s-160 71.6-160 160z" />
<glyph unicode="&#xe913;" glyph-name="airplay" horiz-adv-x="1152" d="M64 832h1024v-640h-203l71.2-64h195.8v768h-1152v-768h195.8l17.4 15.6 53.8 48.4h-203v640zM320 67.6l256 230.4 256-230.4v-3.6h-512v3.6zM256 0h640v96l-320 288-320-288v-96z" />
<glyph unicode="&#xe914;" glyph-name="alarm-clock" d="M184.4 960c-101.8 0-184.4-82.6-184.4-184.4 0-36.4 10.6-70.4 28.8-99l54 34.4c-11.8 18.6-18.8 40.8-18.8 64.6 0 66.6 53.8 120.4 120.4 120.4 31.6 0 60.4-12.2 81.8-32.2l43.6 47c-33 30.6-77 49.2-125.4 49.2zM714.2 910.8l43.6-47c21.4 20 50.2 32.2 81.8 32.2 66.4 0 120.4-53.8 120.4-120.4 0-23.8-6.8-46-18.8-64.6l54-34.4c18.2 28.6 28.8 62.6 28.8 99 0 101.8-82.6 184.4-184.4 184.4-48.4 0-92.6-18.6-125.4-49.2zM134.6-38.6l84 84c78.6-68.2 181.2-109.4 293.4-109.4s214.8 41.2 293.4 109.4l106.6-106.6 45.2 45.2-106.6 106.6c68.2 78.6 109.4 181.2 109.4 293.4 0 247.4-200.6 448-448 448s-448-200.6-448-448c0-112.2 41.2-214.8 109.4-293.4l-106.6-106.6 45.2-45.2 22.6 22.6zM512 768c212.077 0 384-171.923 384-384s-171.923-384-384-384v0c-212.077 0-384 171.923-384 384s171.923 384 384 384v0zM544 608v32h-64v-304l166.4-124.8 38.4 51.2-140.8 105.6v240z" />
<glyph unicode="&#xe915;" glyph-name="alarm-exclamation" d="M184.4 960c-101.8 0-184.4-82.6-184.4-184.4 0-36.4 10.6-70.4 28.8-99l54 34.4c-11.8 18.6-18.8 40.8-18.8 64.6 0 66.6 53.8 120.4 120.4 120.4 31.6 0 60.4-12.2 81.8-32.2l43.6 47c-33 30.6-77 49.2-125.4 49.2zM714.2 910.8l43.6-47c21.4 20 50.2 32.2 81.8 32.2 66.4 0 120.4-53.8 120.4-120.4 0-23.8-6.8-46-18.8-64.6l54-34.4c18.2 28.6 28.8 62.6 28.8 99 0 101.8-82.6 184.4-184.4 184.4-48.4 0-92.6-18.6-125.4-49.2zM134.6-38.6l84 84c78.6-68.2 181.2-109.4 293.4-109.4s214.8 41.2 293.4 109.4l106.6-106.6 45.2 45.2-106.6 106.6c68.2 78.6 109.4 181.2 109.4 293.4 0 247.4-200.6 448-448 448s-448-200.6-448-448c0-112.2 41.2-214.8 109.4-293.4l-106.6-106.6 45.2-45.2 22.6 22.6zM512 768c212.077 0 384-171.923 384-384s-171.923-384-384-384v0c-212.077 0-384 171.923-384 384s171.923 384 384 384v0zM544 640h-64v-352h64v352zM480 160h64v64h-64v-64z" />
<glyph unicode="&#xe916;" glyph-name="alarm-plus" d="M184.4 960c-101.8 0-184.4-82.6-184.4-184.4 0-36.4 10.6-70.4 28.8-99l54 34.4c-11.8 18.6-18.8 40.8-18.8 64.6 0 66.6 53.8 120.4 120.4 120.4 31.6 0 60.4-12.2 81.8-32.2l43.6 47c-33 30.6-77 49.2-125.4 49.2zM714.2 910.8l43.6-47c21.4 20 50.2 32.2 81.8 32.2 66.4 0 120.4-53.8 120.4-120.4 0-23.8-6.8-46-18.8-64.6l54-34.4c18.2 28.6 28.8 62.6 28.8 99 0 101.8-82.6 184.4-184.4 184.4-48.4 0-92.6-18.6-125.4-49.2zM134.6-38.6l84 84c78.6-68.2 181.2-109.4 293.4-109.4s214.8 41.2 293.4 109.4l106.6-106.6 45.2 45.2-106.6 106.6c68.2 78.6 109.4 181.2 109.4 293.4 0 247.4-200.6 448-448 448s-448-200.6-448-448c0-112.2 41.2-214.8 109.4-293.4l-106.6-106.6 45.2-45.2 22.6 22.6zM512 768c212.077 0 384-171.923 384-384s-171.923-384-384-384v0c-212.077 0-384 171.923-384 384s171.923 384 384 384v0zM544 608h-64v-192h-192v-64h192v-192h64v192h192v64h-192v192z" />
<glyph unicode="&#xe917;" glyph-name="alarm-snooze" d="M184.4 960c-101.8 0-184.4-82.6-184.4-184.4 0-36.4 10.6-70.4 28.8-99l54 34.4c-11.8 18.6-18.8 40.8-18.8 64.6 0 66.6 53.8 120.4 120.4 120.4 31.6 0 60.4-12.2 81.8-32.2l43.6 47c-33 30.6-77 49.2-125.4 49.2zM714.2 910.8l43.6-47c21.4 20 50.2 32.2 81.8 32.2 66.4 0 120.4-53.8 120.4-120.4 0-23.8-6.8-46-18.8-64.6l54-34.4c18.2 28.6 28.8 62.6 28.8 99 0 101.8-82.6 184.4-184.4 184.4-48.4 0-92.6-18.6-125.4-49.2zM134.6-38.6l84 84c78.6-68.2 181.2-109.4 293.4-109.4s214.8 41.2 293.4 109.4l106.6-106.6 45.2 45.2-106.6 106.6c68.2 78.6 109.4 181.2 109.4 293.4 0 247.4-200.6 448-448 448s-448-200.6-448-448c0-112.2 41.2-214.8 109.4-293.4l-106.6-106.6 45.2-45.2 22.6 22.6zM512 768c212.077 0 384-171.923 384-384s-171.923-384-384-384v0c-212.077 0-384 171.923-384 384s171.923 384 384 384v0zM384 576h-32v-64h199.4l-162.8-271.6-29.2-48.4h312.6v64h-199.4l192 320h-280.6z" />
<glyph unicode="&#xe918;" glyph-name="album" horiz-adv-x="896" d="M832 832v-768h-768v768h768zM64 896h-64v-896h896v896h-832zM448 704c141.385 0 256-114.615 256-256s-114.615-256-256-256v0c-141.385 0-256 114.615-256 256s114.615 256 256 256v0zM448 128c176.731 0 320 143.269 320 320s-143.269 320-320 320v0c-176.731 0-320-143.269-320-320s143.269-320 320-320v0zM448 400c26.51 0 48 21.49 48 48s-21.49 48-48 48v0c-26.51 0-48-21.49-48-48s21.49-48 48-48v0z" />
<glyph unicode="&#xe919;" glyph-name="album-circle-plus" horiz-adv-x="1152" d="M832 832h-768v-768h486.4c11.8-22.8 25.8-44.4 42-64h-592.4v896h896v-321.4c-10.6 1-21.2 1.4-32 1.4s-21.4-0.4-32-1.4v257.4zM448 768c138.6 0 256.6-88 301-211.2-20.4-7-40-16-58.6-26.4-34.2 101-129.8 173.6-242.4 173.6-141.4 0-256-114.6-256-256s114.6-256 256-256c22.4 0 44 2.8 64.8 8.2 1.4-21.8 4.8-43 10-63.4-24-5.8-49-8.8-74.8-8.8-176.8 0-320 143.2-320 320s143.2 320 320 320zM448 496c26.51 0 48-21.49 48-48s-21.49-48-48-48v0c-26.51 0-48 21.49-48 48s21.49 48 48 48v0zM1088 224c0 123.712-100.288 224-224 224s-224-100.288-224-224v0c0-123.712 100.288-224 224-224s224 100.288 224 224v0zM576 224c0 159.058 128.942 288 288 288s288-128.942 288-288v0c0-159.058-128.942-288-288-288s-288 128.942-288 288v0zM896 352v-96h128v-64h-128v-128h-64v128h-128v64h128v128h64v-32z" />
<glyph unicode="&#xe91a;" glyph-name="album-circle-user" horiz-adv-x="1152" d="M832 832h-768v-768h486.4c11.8-22.8 25.8-44.4 42-64h-592.4v896h896v-321.4c-10.6 1-21.2 1.4-32 1.4s-21.4-0.4-32-1.4v257.4zM448 768c138.6 0 256.6-88 301-211.2-20.4-7-40-16-58.6-26.4-34.2 101-129.8 173.6-242.4 173.6-141.4 0-256-114.6-256-256s114.6-256 256-256c22.4 0 44 2.8 64.8 8.2 1.4-21.8 4.8-43 10-63.4-24-5.8-49-8.8-74.8-8.8-176.8 0-320 143.2-320 320s143.2 320 320 320zM448 496c26.51 0 48-21.49 48-48s-21.49-48-48-48v0c-26.51 0-48 21.49-48 48s21.49 48 48 48v0zM979 31.8l-32.2 32.2h-165.6l-32.2-32.2c33.6-20.2 73-31.8 115-31.8s81.4 11.6 115 31.8zM1028.8 72.4c36.8 39.8 59.2 93.2 59.2 151.6 0 123.8-100.2 224-224 224s-224-100.2-224-224c0-58.4 22.4-111.8 59.2-151.6l55.6 55.6h218.4l55.6-55.6zM576 224c0 159.058 128.942 288 288 288s288-128.942 288-288v0c0-159.058-128.942-288-288-288s-288 128.942-288 288v0zM864 224c26.51 0 48 21.49 48 48s-21.49 48-48 48v0c-26.51 0-48-21.49-48-48s21.49-48 48-48v0zM864 384c61.856 0 112-50.144 112-112s-50.144-112-112-112v0c-61.856 0-112 50.144-112 112s50.144 112 112 112v0z" />
<glyph unicode="&#xe91b;" glyph-name="album-collection" d="M64 960v-64h896v64h-896zM32 832v-64h960v64h-960zM71 640h882l-66.6-640h-748.8l-66.6 640zM80-64h864l73.4 704 6.6 64h-1024l6.6-64 73.4-704zM512 128c-155.4 0-256 98.6-256 192s100.6 192 256 192 256-98.6 256-192-100.6-192-256-192zM512 64c176.8 0 320 114.6 320 256s-143.2 256-320 256-320-114.6-320-256 143.2-256 320-256zM512 272c26.6 0 48 18 48 40s-21.4 40-48 40-48-18-48-40 21.4-40 48-40z" />
<glyph unicode="&#xe91c;" glyph-name="album-collection-circle-plus" horiz-adv-x="1280" d="M64 960h896v-64h-896v64zM32 832h960v-64h-960v64zM71 640l66.6-640h582.8c20-24.2 43.4-45.8 69.2-64h-709.6l-73.4 704-6.6 64h1024l-6.6-64-6.8-64.4c-6.2 0.4-12.4 0.4-18.6 0.4-15.6 0-31-1-46-3l7 67h-882zM512 576c98 0 185.6-35.2 244.2-90.6-16-14.4-30.4-30.2-43.6-47.2-44.6 43.2-114 73.8-200.6 73.8-155.4 0-256-98.6-256-192s100.6-192 256-192c51.4 0 96.8 10.8 134.4 28.6 4.2-21.4 10.2-42 18-61.6-45.2-19.8-97.2-31-152.4-31-176.8 0-320 114.6-320 256s143.2 256 320 256zM512 272c-26.6 0-48 18-48 40s21.4 40 48 40 48-18 48-40-21.4-40-48-40zM1216 224c0 123.712-100.288 224-224 224s-224-100.288-224-224v0c0-123.712 100.288-224 224-224s224 100.288 224 224v0zM704 224c0 159.058 128.942 288 288 288s288-128.942 288-288v0c0-159.058-128.942-288-288-288s-288 128.942-288 288v0zM1024 352v-96h128v-64h-128v-128h-64v128h-128v64h128v128h64v-32z" />
<glyph unicode="&#xe91d;" glyph-name="album-collection-circle-user" horiz-adv-x="1280" d="M64 960h896v-64h-896v64zM32 832h960v-64h-960v64zM71 640l66.6-640h582.8c20-24.2 43.4-45.8 69.2-64h-709.6l-73.4 704-6.6 64h1024l-6.6-64-6.8-64.4c-6.2 0.4-12.4 0.4-18.6 0.4-15.6 0-31-1-46-3l7 67h-882zM512 576c98 0 185.6-35.2 244.2-90.6-16-14.4-30.4-30.2-43.6-47.2-44.6 43.2-114 73.8-200.6 73.8-155.4 0-256-98.6-256-192s100.6-192 256-192c51.4 0 96.8 10.8 134.4 28.6 4.2-21.4 10.2-42 18-61.6-45.2-19.8-97.2-31-152.4-31-176.8 0-320 114.6-320 256s143.2 256 320 256zM512 272c-26.6 0-48 18-48 40s21.4 40 48 40 48-18 48-40-21.4-40-48-40zM1107 31.8l-32.2 32.2h-165.6l-32.2-32.2c33.6-20.2 73-31.8 115-31.8s81.4 11.6 115 31.8zM1156.8 72.4c36.8 39.8 59.2 93.2 59.2 151.6 0 123.8-100.2 224-224 224s-224-100.2-224-224c0-58.4 22.4-111.8 59.2-151.6l55.6 55.6h218.4l55.6-55.6zM704 224c0 159.058 128.942 288 288 288s288-128.942 288-288v0c0-159.058-128.942-288-288-288s-288 128.942-288 288v0zM992 224c26.51 0 48 21.49 48 48s-21.49 48-48 48v0c-26.51 0-48-21.49-48-48s21.49-48 48-48v0zM992 384c61.856 0 112-50.144 112-112s-50.144-112-112-112v0c-61.856 0-112 50.144-112 112s50.144 112 112 112v0z" />
<glyph unicode="&#xe91e;" glyph-name="alicorn" horiz-adv-x="1280" d="M672 672c0 123.8 100.2 224 224 224h91.8l78.4-78.4 19.8-208.8-84.8-53-46.8 70.2-9.4 14.2h-113v-160c0-48-20.8-90.2-53.4-119.2l-10.6-9.6v-351.4h-96v317.6l-26.6 4.6c-2.8 0.4-5.6 1-8.6 1.6l-268.8 60.6v-106.2l-3.8-9-37-86.2-4.4-10.4 3-10.8 45-161.8h-99.8l-45.4 163.2-4.6 16.2 6.6 15.6 41.6 97 2.6 6v28.4l-2.4 6-69.6 167.2c-5.2 12.4-7.8 25.6-7.8 39 0 43.6 27.6 81 66.4 95.2-8.8 18.8-16.8 38.6-23.6 59.6-40.8-15.4-74-46.6-92-86.2-80.2-8.8-142.8-76.6-142.8-159.2v-128h64v128c0 41.8 26.8 77.4 64 90.6 0-21.8 4.4-43.4 12.8-63.4l67.2-161.6v-2.6l-39-90.8-11-26-4.4-10.2 3-10.8 7.4-27.2 52-186.6 6.6-23.4h232.6l-11.2 40.6-53.6 191.4 38.8 90.8 2.6 6v39.6l176-39.6v-328.8h224v387.2c39.2 40 64 95 64 156.8v96h14.8l71.8-107.6 26.4 16.4 144.8 90.4-1.8 19.6-15 157.2 143.2 48v32h-150.8l-0.2 3-1 11.4-49.6 49.6h41.6v64h-224c-143.8 0-263-105.4-284.6-243.2l-339.4 203.8v-56.6c0-154.4 68.8-265.8 136.6-338 33.8-36 67.8-62.4 93.2-80 12.8-8.8 23.4-15.4 31-19.8 3.8-2.2 6.8-4 9-5 1-0.6 2-1 2.6-1.4l0.8-0.4 0.2-0.2s0 0 14.4 28.6l-14.4-28.6 28.6-14.4 28.6 57.2-29 14.4-1.8 1c-1.6 0.8-4 2.2-7.2 4-6.4 3.6-15.6 9.4-27 17.2-22.6 15.6-52.8 39-82.8 71-51 54-101.2 131.6-115.4 235.2l275.2-165.2h57.4v32.4zM992 768c0 17.673-14.327 32-32 32s-32-14.327-32-32v0c0-17.673 14.327-32 32-32s32 14.327 32 32v0z" />
<glyph unicode="&#xe91f;" glyph-name="alien" horiz-adv-x="896" d="M448 896c-212 0-384-172-384-384 0-148.4 95-276.2 202.6-372.2 52.6-47 105.6-84 145.6-109.2 13.8-8.6 26-16 35.8-21.6 10 5.8 22 13 35.8 21.6 39.8 25.2 92.8 62 145.6 109.2 107.6 96 202.6 223.8 202.6 372.2 0 212-172 384-384 384zM0 512c0 247.4 200.6 448 448 448s448-200.6 448-448c0-352-448-576-448-576s-448 224-448 576zM704 480h-64c-53 0-96-43-96-96h64c53 0 96 43 96 96zM640 544h128v-64c0-88.4-71.6-160-160-160h-128v64c0 88.4 71.6 160 160 160zM256 480h-64c0-53 43-96 96-96h64c0 53-43 96-96 96zM416 384v-64h-128c-88.4 0-160 71.6-160 160v64h128c88.4 0 160-71.6 160-160z" />
<glyph unicode="&#xe920;" glyph-name="alien-8bit" horiz-adv-x="1152" d="M224 896h-32v-160h-192v-416h128v-128h128v-192h288v192h64v-192h288v192h128v128h128v416h-192v160h-192v-64h-128v-128h-128v128h-128v64h-160zM192 704h128v-64h-128v64zM192 576h192v192h64v-128h256v128h64v-192h192v-128h64v224h64v-288h-128v-128h-768v128h-128v288h64v-224h64v128zM960 640h-128v64h128v-64zM320 800v-32h-64v64h64v-32zM896 768h-64v64h64v-64zM320 64v128h64v-64h96v-64h-160zM768 160v32h64v-128h-160v64h96v32zM448 480v32h-64v-192h64v160zM768 480v32h-64v-192h64v160z" />
<glyph unicode="&#xe921;" glyph-name="align-center" horiz-adv-x="896" d="M224 864h-32v-64h512v64h-480zM32 608h-32v-64h896v64h-864zM192 352v-64h512v64h-512zM32 96h-32v-64h896v64h-864z" />
<glyph unicode="&#xe922;" glyph-name="align-justify" horiz-adv-x="896" d="M32 864h-32v-64h896v64h-864zM0 608v-64h896v64h-896zM32 352h-32v-64h896v64h-864zM32 96h-32v-64h896v64h-864z" />
<glyph unicode="&#xe923;" glyph-name="align-left" horiz-adv-x="896" d="M32 864h-32v-64h576v64h-544zM32 608h-32v-64h896v64h-864zM0 352v-64h576v64h-576zM32 96h-32v-64h896v64h-864z" />
<glyph unicode="&#xe924;" glyph-name="align-right" horiz-adv-x="896" d="M864 864h32v-64h-576v64h544zM864 608h32v-64h-896v64h864zM896 352v-64h-576v64h576zM864 96h32v-64h-896v64h864z" />
<glyph unicode="&#xe925;" glyph-name="align-slash" horiz-adv-x="1280" d="M80.8 924l-25.2 19.8-39.4-50.6 25.2-19.6 1183.4-921.8 39.4 50.4-25.2 19.8-1158.2 902zM1056 288h32v64h-119.8l81-64h6.8zM1056 544h32v64h-444l81-64h331zM311.8 544l-81 64h-38.8v-64h119.8zM1056 864h-736.4l81-64h687.4v64h-32zM636 288l-81 64h-363v-64h444zM879.2 96h-687.2v-64h768.4l-81 64z" />
<glyph unicode="&#xe926;" glyph-name="alt" horiz-adv-x="1280" d="M928 832h-15.2l-9.6-11.8-566.4-692.2h-336.8v-64h367.2l9.6 11.8 566.4 692.2h336.8v64h-352zM864 128h-32v-64h448v64h-416z" />
<glyph unicode="&#xe927;" glyph-name="ampersand" horiz-adv-x="896" d="M192 896h-32v-193.2c0-48.6 18.4-95.2 51.4-130.8l92.6-99.4-158.2-110.6c-51.2-36-81.8-94.6-81.8-157.4v-204.6h464l96.2 128.2 119.2-128.2h87.4l-167.6 180.2 162.4 216.6-51.2 38.4-155.4-207.4-218 234.4 125.2 87.8c51.4 36 81.8 94.6 81.8 157.2v188.8h-416zM489.4 602.4l-132.6-92.8-98.6 106c-22 23.6-34.2 54.8-34.2 87.2v129.2h320v-124.6c0-41.8-20.4-81-54.6-104.8zM182.6 309.6l165.4 115.6 232-249.4-84-111.8h-368v140.6c0 41.8 20.4 81 54.6 104.8z" />
<glyph unicode="&#xe928;" glyph-name="amp-guitar" d="M512 960c-91.8 0-175.4-54.4-232.8-103.8-9.6-8.2-18.6-16.4-26.8-24.2h-252.4v-896h1024v896h-252.4c-8.4 8-17.4 16.2-26.8 24.2-57.4 49.4-141 103.8-232.8 103.8zM672.8 832h-321.6c48.6 36 104.8 64 160.8 64s112.2-28 160.8-64zM960 384v-384h-896v384h896zM960 448h-896v320h896v-320zM240 608c0 26.51-21.49 48-48 48s-48-21.49-48-48v0c0-26.51 21.49-48 48-48s48 21.49 48 48v0zM384 560c26.51 0 48 21.49 48 48s-21.49 48-48 48v0c-26.51 0-48-21.49-48-48s21.49-48 48-48v0zM688 608c0 26.51-21.49 48-48 48s-48-21.49-48-48v0c0-26.51 21.49-48 48-48s48 21.49 48 48v0zM832 560c26.51 0 48 21.49 48 48s-21.49 48-48 48v0c-26.51 0-48-21.49-48-48s21.49-48 48-48v0zM224 256v64h-64v-64h64zM224 64v64h-64v-64h64zM288 320v-64h64v64h-64zM352 128h-64v-64h64v64zM224 224v-64h64v64h-64zM480 320h-64v-64h64v64zM416 128v-64h64v64h-64zM416 160v64h-64v-64h64zM544 320v-64h64v64h-64zM608 128h-64v-64h64v64zM480 224v-64h64v64h-64zM736 320h-64v-64h64v64zM800 256h64v64h-64v-64zM736 128h-64v-64h64v64zM800 64h64v64h-64v-64zM672 160v64h-64v-64h64zM736 224v-64h64v64h-64z" />
<glyph unicode="&#xe929;" glyph-name="anchor" horiz-adv-x="1152" d="M672 800c0-53.019-42.981-96-96-96s-96 42.981-96 96v0c0 53.019 42.981 96 96 96s96-42.981 96-96v0zM576 960c-88.4 0-160-71.6-160-160 0-77.4 55-142 128-156.8v-67.2h-160v-64h160v-512h-352v338.8l80-80 45.2 45.2-157.2 157.2-157.2-157.2 45.2-45.2 80 80v-402.8h896v402.8l80-80 45.2 45.2-157.2 157.2-157.2-157.2 45.2-45.2 80 80v-338.8h-352v512h160v64h-160v67.2c73 14.8 128 79.4 128 156.8 0 88.4-71.6 160-160 160z" />
<glyph unicode="&#xe92a;" glyph-name="anchor-circle-check" horiz-adv-x="1280" d="M672 800c0-53.019-42.981-96-96-96s-96 42.981-96 96v0c0 53.019 42.981 96 96 96s96-42.981 96-96v0zM576 960c-88.4 0-160-71.6-160-160 0-77.4 55-142 128-156.8v-67.2h-160v-64h160v-512h-352v338.8l80-80 45.2 45.2-157.2 157.2-157.2-157.2 45.2-45.2 80 80v-402.8h661.6c-25.8 18.2-49 39.8-69.2 64h-112.4v512h160v64h-160v67.2c73 14.8 128 79.4 128 156.8 0 88.4-71.6 160-160 160zM992 448c123.712 0 224-100.288 224-224s-100.288-224-224-224v0c-123.712 0-224 100.288-224 224s100.288 224 224 224v0zM992-64c159.058 0 288 128.942 288 288s-128.942 288-288 288v0c-159.058 0-288-128.942-288-288s128.942-288 288-288v0zM1149.2 288l-45.2 45.2-144-144-80 80-45.2-45.2 125.2-125.2 189.2 189.2z" />
<glyph unicode="&#xe92b;" glyph-name="anchor-circle-exclamation" horiz-adv-x="1280" d="M672 800c0-53.019-42.981-96-96-96s-96 42.981-96 96v0c0 53.019 42.981 96 96 96s96-42.981 96-96v0zM576 960c-88.4 0-160-71.6-160-160 0-77.4 55-142 128-156.8v-67.2h-160v-64h160v-512h-352v338.8l80-80 45.2 45.2-157.2 157.2-157.2-157.2 45.2-45.2 80 80v-402.8h661.6c-25.8 18.2-49 39.8-69.2 64h-112.4v512h160v64h-160v67.2c73 14.8 128 79.4 128 156.8 0 88.4-71.6 160-160 160zM768 224c0 123.712 100.288 224 224 224s224-100.288 224-224v0c0-123.712-100.288-224-224-224s-224 100.288-224 224v0zM1280 224c0 159.058-128.942 288-288 288s-288-128.942-288-288v0c0-159.058 128.942-288 288-288s288 128.942 288 288v0zM1024 64v64h-64v-64h64zM1024 384h-64v-224h64v224z" />
<glyph unicode="&#xe92c;" glyph-name="anchor-circle-xmark" horiz-adv-x="1280" d="M672 800c0-53.019-42.981-96-96-96s-96 42.981-96 96v0c0 53.019 42.981 96 96 96s96-42.981 96-96v0zM576 960c-88.4 0-160-71.6-160-160 0-77.4 55-142 128-156.8v-67.2h-160v-64h160v-512h-352v338.8l80-80 45.2 45.2-157.2 157.2-157.2-157.2 45.2-45.2 80 80v-402.8h661.6c-25.8 18.2-49 39.8-69.2 64h-112.4v512h160v64h-160v67.2c73 14.8 128 79.4 128 156.8 0 88.4-71.6 160-160 160zM768 224c0 123.712 100.288 224 224 224s224-100.288 224-224v0c0-123.712-100.288-224-224-224s-224 100.288-224 224v0zM1280 224c0 159.058-128.942 288-288 288s-288-128.942-288-288v0c0-159.058 128.942-288 288-288s288 128.942 288 288v0zM1110.6 297.4l22.6 22.6-45.2 45.2-96-96-96 96-45.2-45.2 96-96-96-96 45.2-45.2 96 96 96-96 45.2 45.2-96 96 73.4 73.4z" />
<glyph unicode="&#xe92d;" glyph-name="anchor-lock" horiz-adv-x="1280" d="M672 800c0-53.019-42.981-96-96-96s-96 42.981-96 96v0c0 53.019 42.981 96 96 96s96-42.981 96-96v0zM576 960c-88.4 0-160-71.6-160-160 0-77.4 55-142 128-156.8v-67.2h-160v-64h160v-512h-352v338.8l80-80 45.2 45.2-157.2 157.2-157.2-157.2 45.2-45.2 80 80v-402.8h640v64h-160v512h160v64h-160v67.2c73 14.8 128 79.4 128 156.8 0 88.4-71.6 160-160 160zM1056 512c53 0 96-43 96-96v-96h-192v96c0 53 43 96 96 96zM896 416v-96h-64v-384h448v384h-64v96c0 88.4-71.6 160-160 160s-160-71.6-160-160zM896 256h320v-256h-320v256z" />
<glyph unicode="&#xe92e;" glyph-name="angel" horiz-adv-x="1152" d="M768 831.6c0 0.2 0 0.2 0 0.4s0 0.2 0 0.4-0.2 0.6-0.4 1.2c-0.6 1.2-1.8 3.6-4.6 7-5.8 7-16.8 15.8-34.6 24.8-35.6 17.8-89.4 30.6-152.4 30.6s-116.8-12.8-152.4-30.8c-17.8-9-28.8-17.8-34.6-24.8-2.8-3.4-4-5.6-4.6-7-0.2-0.6-0.4-1-0.4-1.2s0-0.2 0-0.4 0-0.2 0-0.4 0.2-0.6 0.4-1.2c0.6-1.2 1.8-3.6 4.6-7s6.8-7.2 12.4-11.2c-13.4-16.6-24.4-35.2-32.6-55.4-30.8 21.4-48.8 47.4-48.8 75.4 0 70.6 114.6 128 256 128s256-57.4 256-128c0-28-18-54-48.6-75-8.2 20-19.2 38.6-32.6 55.4 5.4 4 9.6 8 12.4 11.2 2.8 3.4 4 5.6 4.6 7 0.2 0.6 0.4 1 0.4 1.2zM576 576c53.019 0 96 42.981 96 96s-42.981 96-96 96v0c-53.019 0-96-42.981-96-96s42.981-96 96-96v0zM576 832c88.366 0 160-71.634 160-160s-71.634-160-160-160v0c-88.366 0-160 71.634-160 160s71.634 160 160 160v0zM149.2 291.6l19.8-29.8-15-32.6-90-195.2v-34h160l209.8 419.6-156.4 156.4h-213.4v-156.6l85.2-127.8zM496 448h160l192 192h304v-240l-96-144 96-208v-112h-1152v112l96 208-96 144v240h304l192-192zM718.2 419.6l209.8-419.6h160v34l-90.2 195.2-15 32.6 19.8 29.8 85.4 127.8v156.6h-213.4l-156.4-156.4zM856.4 0l-192 384h-176.8l-192-384h560.8z" />
<glyph unicode="&#xe92f;" glyph-name="angle" horiz-adv-x="896" d="M419.2 877.8l-418.8-877.8h895.6v64h-794l374.8 786.2-57.6 27.6zM448.8 615l-29-58c52.4-37.8 98.6-84 136.6-136.2l54.2 34.4c-44.4 62-99.2 116.2-161.8 159.8zM666.8 144h64.4c-9.8 81.8-34.2 159.2-70.6 229.4l-54.2-34.4c30.4-60 51.2-125.6 60.4-195z" />
<glyph unicode="&#xe930;" glyph-name="angle-90" horiz-adv-x="896" d="M64 864v32h-64v-896h896v64h-832v800zM160 767.2v-64c80-4.4 155.6-25 223.6-58.8l33.6 54.8c-78 39.6-165 63.6-257.2 68.2zM439.2 612.8c69.6-44.8 128.8-104 173.4-173.4l54.6 33.6c-50 78-116.4 144.4-194.4 194.4l-33.6-54.6zM703.2 160h64c-4.6 92.2-28.6 179.4-68.2 257.2l-54.8-33.6c33.8-68 54.4-143.6 58.8-223.6z" />
<glyph unicode="&#xe931;" glyph-name="angle-down" horiz-adv-x="896" d="M448 274.8l365.2 365.2-45.2 45.2-320-320-320 320-45.2-45.2 365.2-365.2z" />
<glyph unicode="&#xe932;" glyph-name="angle-left" horiz-adv-x="640" d="M82.8 448l365.2 365.2 45.2-45.2-320-320 320-320-45.2-45.2-365.2 365.2z" />
<glyph unicode="&#xe933;" glyph-name="angle-right" horiz-adv-x="640" d="M557.2 448l-365.2-365.2-45.2 45.2 320 320-320 320 45.2 45.2 365.2-365.2z" />
<glyph unicode="&#xe934;" glyph-name="angles-down" horiz-adv-x="896" d="M470.6 425.4l-22.6-22.6-365.2 365.2 45.2 45.2 320-320 320 320 45.2-45.2-342.6-342.6zM470.6 41.4l-22.6-22.6-365.2 365.2 45.2 45.2 320-320 320 320 45.2-45.2-342.6-342.6z" />
<glyph unicode="&#xe935;" glyph-name="angles-left" d="M105.4 470.6l-22.6-22.6 365.2-365.2 45.2 45.2-320 320 320 320-45.2 45.2-342.6-342.6zM489.4 470.6l-22.6-22.6 365.2-365.2 45.2 45.2-320 320 320 320-45.2 45.2-342.6-342.6z" />
<glyph unicode="&#xe936;" glyph-name="angles-right" d="M534.6 425.4l22.6 22.6-365.2 365.2-45.2-45.2 320-320-320-320 45.2-45.2 342.6 342.6zM918.6 425.4l22.6 22.6-365.2 365.2-45.2-45.2 320-320-320-320 45.2-45.2 342.6 342.6z" />
<glyph unicode="&#xe937;" glyph-name="angles-up" horiz-adv-x="896" d="M470.6 854.6l-22.6 22.6-365.2-365.2 45.2-45.2 320 320 320-320 45.2 45.2-342.6 342.6zM470.6 470.6l-22.6 22.6-365.2-365.2 45.2-45.2 320 320 320-320 45.2 45.2-342.6 342.6z" />
<glyph unicode="&#xe938;" glyph-name="angle-up" horiz-adv-x="896" d="M448 685.2l365.2-365.2-45.2-45.2-320 320-320-320-45.2 45.2 365.2 365.2z" />
<glyph unicode="&#xe939;" glyph-name="ankh" horiz-adv-x="640" d="M128 704c0-96.4 51.6-177.2 110-237.4 28.8-29.6 57.6-52.8 79.4-68.4l2.6-1.8 2.6 1.8c21.8 15.6 50.6 38.6 79.4 68.4 58.4 60.2 110 141 110 237.4 0 106-86 192-192 192s-192-86-192-192zM232.2 384c-74 64.2-168.2 174.4-168.2 320 0 141.4 114.6 256 256 256s256-114.6 256-256c0-145.6-94.2-255.8-168.2-320h232.2v-64h-288v-384h-64v384h-288v64h232.2z" />
<glyph unicode="&#xe93a;" glyph-name="apartment" horiz-adv-x="1152" d="M896 640h256v-704h-1152v832h256v192h640v-320zM448 0v256h256v-256h384v576h-256v320h-512v-192h-256v-704h384zM640 0v192h-128v-192h128zM1024 64h-192v192h192v-192zM960 128v64h-64v-64h64zM288 192h-160v192h192v-192h-32zM256 320h-64v-64h64v64zM1024 320h-192v192h192v-192zM960 448h-64v-64h64v64zM288 448h-160v192h192v-192h-32zM256 576h-64v-64h64v64zM672 384h-192v192h192v-192zM608 512h-64v-64h64v64zM640 640h-160v192h192v-192h-32zM608 768h-64v-64h64v64z" />
<glyph unicode="&#xe93b;" glyph-name="aperture" d="M837.6 140.2l-6.6 11.6-134.2 232.2-64.8-112-156.2-270.6c12-1 24-1.4 36.2-1.4 128.2 0 243.8 53.8 325.6 140.2zM880.8 193.4c50 72.2 79.4 160 79.4 254.6 0 44.4-6.4 87.4-18.6 128h-281.8l220.8-382.6zM916.8 640c-57.4 121-167.6 212.2-301 243.8l-6.8-11.6-134-232.2h441.8zM548.2 894.6c-12 1-24 1.4-36.2 1.4-128.2 0-243.8-53.8-325.6-140.2l6.6-11.6 134-232.2 65 112 156.2 270.6zM143.4 702.6c-50.2-72.4-79.4-160-79.4-254.6 0-44.4 6.4-87.4 18.6-128h281.6l-220.8 382.6zM107.2 256c57.6-121 167.8-212.2 301-243.8l6.8 11.6 134 232.2h-441.8zM0 448c0 282.77 229.23 512 512 512s512-229.23 512-512v0c0-282.77-229.23-512-512-512s-512 229.23-512 512v0zM438.2 320h147.8l74 128-74 128h-148l-73.8-128 74-128z" />
<glyph unicode="&#xe93c;" glyph-name="apostrophe" horiz-adv-x="384" d="M160 256c123.8 0 224 100.2 224 224v416h-384v-384h320v-32c0-88.4-71.6-160-160-160h-32v-64h32zM320 576h-256v256h256v-256z" />
<glyph unicode="&#xe93d;" glyph-name="apple-core" horiz-adv-x="768" d="M356.6 704h-36.6v96c0 88.4 71.6 160 160 160h96v-96c0-88.4-71.6-160-160-160h-59.4zM480 896c-53 0-96-43-96-96v-32h32c53 0 96 43 96 96v32h-32zM160 704l224-64 224 64c27.8 0 52.8-5.6 75.4-15.6 21-9.4 39.8-22.8 56.4-39-18.4-11.6-35.4-24.8-51.4-39.6-69.2-64.2-112.4-156-112.4-257.8 0-107.4 48.2-203.6 124-268.2 9.6-8.2 19.4-15.8 29.8-22.8-13.4-17.6-28-33.6-43.2-48-52.2-49-113.4-77-174.6-77l-128 32-128-32c-61.2 0-122.4 28-174.6 77.2-15.2 14.2-29.6 30.4-43.2 48 10.4 7 20.4 14.6 29.8 22.8 75.8 64.4 124 160.6 124 268 0 101.8-43.2 193.6-112.4 257.8-15.8 14.8-33 28-51.4 39.6 16.4 16.4 35.2 29.6 56.4 39 22.4 10 47.6 15.6 75.4 15.6zM401.6 578.4l-17.6-5-17.6 5-214.6 61.4c-3.6-0.2-7-0.6-10.4-1 71-74.6 114.6-175.6 114.6-286.8 0-116.6-48-222-125.2-297.4 38.8-34.6 80.4-52.4 118-54.4l135.2 33.8 15.6-3.8 119.6-29.8c37.6 2 79.2 19.8 118 54.4-77.2 75.2-125.2 180.6-125.2 297.2 0 111.2 43.6 212.2 114.6 286.8-3.4 0.4-6.8 0.8-10.4 1l-214.6-61.4z" />
<glyph unicode="&#xe93e;" glyph-name="apple-whole" horiz-adv-x="896" d="M420.6 704h-36.6v96c0 88.4 71.6 160 160 160h96v-96c0-88.4-71.6-160-160-160h-59.4zM544 896c-53 0-96-43-96-96v-32h32c53 0 96 43 96 96v32h-32zM224 704l224-64 224 64c152.6 0 224-167.4 224-320 0-256-160-448-320-448l-128 32-128-32c-160 0-320 192-320 448 0 152.6 71.4 320 224 320zM465.6 578.4l-17.6-5-17.6 5-214.6 61.4c-44.6-2.6-79.6-27.4-106.4-71.8-29.4-48.6-45.4-116.4-45.4-184 0-115 36-213.2 87.2-281.6 49.8-66.2 109.4-99.4 161.6-102.2l135.2 33.8 15.6-3.8 119.6-29.8c52.2 2.8 112 36 161.6 102.2 51.2 68.2 87.2 166.4 87.2 281.4 0 67.6-16 135.4-45.6 184-26.8 44.2-61.8 69-106.4 71.8l-214.4-61.4z" />
<glyph unicode="&#xe93f;" glyph-name="archway" d="M0 896h1024v-64h-64v-768h64v-64h-320v256c0 106-86 192-192 192s-192-86-192-192v-256h-320v64h64v768h-64v64zM128 832v-128h768v128h-768zM128 640v-576h128v192c0 141.4 114.6 256 256 256s256-114.6 256-256v-192h128v576h-768z" />
<glyph unicode="&#xe940;" glyph-name="arrow-down" horiz-adv-x="768" d="M406.6 25.4l-22.6-22.6-381.2 381.2 45.2 45.2 304-304v770.8h64v-770.8l304 304 45.2-45.2-358.6-358.6z" />
<glyph unicode="&#xe941;" glyph-name="arrow-down-1-9" horiz-adv-x="1152" d="M320 2.8l221.2 221.2-45.2 45.2-144-144v770.8h-64v-770.8l-144 144-45.2-45.2 221.2-221.2zM736 896v-64h96v-256h-96v-64h256v64h-96v320h-160zM856 176c-57.438 0-104 46.562-104 104s46.562 104 104 104v0c57.438 0 104-46.562 104-104s-46.562-104-104-104v0zM688 280c0-92.8 75.2-168 168-168 4 0 7.8 0.2 11.6 0.4l-84.8-107c-1.4-1.8-2.4-3.4-3.4-5.4h80.8l123.4 155.8c26.2 33 40.4 74 40.4 116.2h-0.2c0.2 2.6 0.2 5.4 0.2 8 0 92.8-75.2 168-168 168s-168-75.2-168-168z" />
<glyph unicode="&#xe942;" glyph-name="arrow-down-9-1" horiz-adv-x="1152" d="M320 2.8l221.2 221.2-45.2 45.2-144-144v770.8h-64v-770.8l-144 144-45.2-45.2 221.2-221.2zM736 320h96v-256h-96v-64h256v64h-96v320h-160v-64zM856 624c-57.438 0-104 46.562-104 104s46.562 104 104 104v0c57.438 0 104-46.562 104-104s-46.562-104-104-104v0zM688 728c0-92.8 75.2-168 168-168 4 0 7.8 0.2 11.6 0.4l-84.8-107c-1.4-1.8-2.4-3.4-3.4-5.4h80.8l123.4 155.8c26.2 33 40.4 74 40.4 116.2h-0.2c0.2 2.6 0.2 5.4 0.2 8 0 92.8-75.2 168-168 168s-168-75.2-168-168z" />
<glyph unicode="&#xe943;" glyph-name="arrow-down-arrow-up" horiz-adv-x="1152" d="M233.4 25.4l22.6-22.6 237.2 237.2-45.2 45.2-160-160v770.8h-64v-770.8l-160 160-45.2-45.2 214.6-214.6zM745.4 870.6l-214.6-214.6 45.2-45.2 160 160v-770.8h64v770.8l160-160 45.2 45.2-237.2 237.2-22.6-22.6z" />
<glyph unicode="&#xe944;" glyph-name="arrow-down-a-z" horiz-adv-x="1152" d="M342.6 25.4l-22.6-22.6-221.2 221.2 45.2 45.2 144-144v770.8h64v-770.8l144 144 45.2-45.2-198.6-198.6zM704 384h288v-60.2l-231-259.8h231v-64h-320v60.2l231 259.8h-231v64h32zM739 576l-28.4-64h-70l2.2 5 168.4 379h41.6l8.4-19 162.2-365h-70l-28.4 64h-186zM896.6 640l-64.6 145.2-64.6-145.2h129z" />
<glyph unicode="&#xe945;" glyph-name="arrow-down-big-small" horiz-adv-x="1152" d="M320 2.8l221.2 221.2-45.2 45.2-144-144v770.8h-64v-770.8l-144 144-45.2-45.2 221.2-221.2zM704 320h-64v-320h320v320h-256zM896 256v-192h-192v192h192zM640 896v-448h448v448h-448zM1024 512h-320v320h320v-320z" />
<glyph unicode="&#xe946;" glyph-name="arrow-down-from-dotted-line" horiz-adv-x="896" d="M112 880v-96h-96v96h96zM304 880v-96h-96v96h96zM400 880h96v-96h-96v96zM688 880v-96h-96v96h96zM784 880h96v-96h-96v96zM470.6 25.4l-22.6-22.6-301.2 301.2 45.2 45.2 224-224v514.8h64v-514.8l224 224 45.2-45.2-278.6-278.6z" />
<glyph unicode="&#xe947;" glyph-name="arrow-down-from-line" horiz-adv-x="768" d="M406.6 25.4l-22.6-22.6-301.2 301.2 45.2 45.2 224-224v578.8h64v-578.8l224 224 45.2-45.2-278.6-278.6zM32 832h-32v64h768v-64h-736z" />
<glyph unicode="&#xe948;" glyph-name="arrow-down-left" horiz-adv-x="768" d="M96 128h-32v512h64v-402.8l528 528 45.2-45.2-528-528h402.8v-64h-480z" />
<glyph unicode="&#xe949;" glyph-name="arrow-down-left-and-arrow-up-right-to-center" d="M998.6 889.4l22.6 22.6-45.2 45.2-336-336v242.8h-64v-352h352v64h-242.8l313.4 313.4zM25.4 6.6l-22.6-22.6 45.2-45.2 336 336v-242.8h64v352h-352v-64h242.8l-313.4-313.4z" />
<glyph unicode="&#xe94a;" glyph-name="arrow-down-long" horiz-adv-x="768" d="M361.4-41.4l22.6-22.6 333.2 333.2-45.2 45.4-256-256v901.4h-64v-901.4l-256 256-45.2-45.4 310.6-310.6z" />
<glyph unicode="&#xe94b;" glyph-name="arrow-down-right" horiz-adv-x="768" d="M672 128h32v512h-64v-402.8l-528 528-45.2-45.2 528-528h-402.8v-64h480z" />
<glyph unicode="&#xe94c;" glyph-name="arrow-down-short-wide" horiz-adv-x="1152" d="M278.6 25.4l-22.6-22.6-221.2 221.2 45.2 45.2 144-144v770.8h64v-770.8l144 144 45.2-45.2-198.6-198.6zM608 864h160v-64h-192v64h32zM608 608h288v-64h-320v64h32zM608 352h416v-64h-448v64h32zM608 96h544v-64h-576v64h32z" />
<glyph unicode="&#xe94d;" glyph-name="arrow-down-small-big" horiz-adv-x="1152" d="M320 2.8l221.2 221.2-45.2 45.2-144-144v770.8h-64v-770.8l-144 144-45.2-45.2 221.2-221.2zM704 576h256v320h-320v-320h64zM896 640h-192v192h192v-192zM640 0h448v448h-448v-448zM704 384h320v-320h-320v320z" />
<glyph unicode="&#xe94e;" glyph-name="arrow-down-square-triangle" horiz-adv-x="1152" d="M320 2.8l221.2 221.2-45.2 45.2-144-144v770.8h-64v-770.8l-144 144-45.2-45.2 221.2-221.2zM592 0h480l-240 384-37.8-60.4-202.2-323.6zM956.6 64h-249.2l124.6 199.2 124.6-199.2zM704 832h256v-256h-256v256zM640 896v-384h384v384h-384z" />
<glyph unicode="&#xe94f;" glyph-name="arrow-down-to-arc" d="M512 0c247.4 0 448 200.6 448 448v32h64v-32c0-282.8-229.2-512-512-512s-512 229.2-512 512v32h64v-32c0-247.4 200.6-448 448-448zM792 554.8l-280-315-301.2 339 47.8 42.6 21.2-24 200.2-225.2v587.8h64v-587.8l221.2 249 47.8-42.6-21.2-24z" />
<glyph unicode="&#xe950;" glyph-name="arrow-down-to-bracket" horiz-adv-x="896" d="M470.6 265.4l-22.6-22.6-301.2 301.2 45.2 45.2 224-224v594.8h64v-594.8l224 224 45.2-45.2-278.6-278.6zM64 288v-288h768v320h64v-384h-896v384h64v-32z" />
<glyph unicode="&#xe951;" glyph-name="arrow-down-to-dotted-line" horiz-adv-x="896" d="M470.6 265.4l-22.6-22.6-301.2 301.2 45.2 45.2 224-224v530.8h64v-530.8l224 224 45.2-45.2-278.6-278.6zM112 112v-96h-96v96h96zM304 112v-96h-96v96h96zM400 16v96h96v-96h-96zM688 112v-96h-96v96h96zM784 112h96v-96h-96v96z" />
<glyph unicode="&#xe952;" glyph-name="arrow-down-to-line" horiz-adv-x="768" d="M32 0h-32v64h768v-64h-736zM406.6 201.4l-22.6-22.6-301.2 301.2 45.2 45.2 224-224v594.8h64v-594.8l224 224 45.2-45.2-278.6-278.6z" />
<glyph unicode="&#xe953;" glyph-name="arrow-down-to-square" d="M535.6 298.2l213.8 231.6-47 43.4-158.4-171.4v558.2h-64v-558.2l-158.2 171.4-47-43.4 237.2-257 23.6 25.4zM32 896h-32v-960h1024v960h-256v-64h192v-832h-896v832h192v64h-224z" />
<glyph unicode="&#xe954;" glyph-name="arrow-down-triangle-square" horiz-adv-x="1152" d="M320 2.8l221.2 221.2-45.2 45.2-144-144v770.8h-64v-770.8l-144 144-45.2-45.2 221.2-221.2zM592 512h480l-240 384-37.8-60.4-202.2-323.6zM956.6 576h-249.2l124.6 199.2 124.6-199.2zM704 64v256h256v-256h-256zM640 384v-384h384v384h-384z" />
<glyph unicode="&#xe955;" glyph-name="arrow-down-up-across-line" horiz-adv-x="1152" d="M320-61.2l237.2 237.2-45.2 45.2-160-160v354.8h800v64h-288v354.8l160-160 45.2 45.2-237.2 237.2-237.2-237.2 45.2-45.2 160 160v-354.8h-800v-64h288v-354.8l-160 160-45.2-45.2 237.2-237.2zM288 864v-288h64v320h-64v-32zM800 320v-320h64v320h-64z" />
<glyph unicode="&#xe956;" glyph-name="arrow-down-up-lock" horiz-adv-x="1280" d="M256-61.2l237.2 237.2-45.2 45.2-160-160v354.8h544c0 22.2 3.2 43.8 9.2 64h-169.2v354.8l160-160 45.2 45.2-237.2 237.2-237.2-237.2 45.2-45.2 160 160v-354.8h-608v-64h224v-354.8l-160 160-45.2-45.2 237.2-237.2zM224 864v-304h64v336h-64v-32zM672 336h-64v-336h64v336zM1056 512c53 0 96-43 96-96v-96h-192v96c0 53 43 96 96 96zM896 416v-96h-64v-384h448v384h-64v96c0 88.4-71.6 160-160 160s-160-71.6-160-160zM896 256h320v-256h-320v256z" />
<glyph unicode="&#xe957;" glyph-name="arrow-down-wide-short" horiz-adv-x="1152" d="M278.6 25.4l-22.6-22.6-221.2 221.2 45.2 45.2 144-144v770.8h64v-770.8l144 144 45.2-45.2-198.6-198.6zM608 32h-32v64h192v-64h-160zM608 288h-32v64h320v-64h-288zM608 544h-32v64h448v-64h-416zM608 800h-32v64h576v-64h-544z" />
<glyph unicode="&#xe958;" glyph-name="arrow-down-z-a" horiz-adv-x="1152" d="M320 2.8l221.2 221.2-45.2 45.2-144-144v770.8h-64v-770.8l-144 144-45.2-45.2 221.2-221.2zM672 896v-64h231l-231-259.8v-60.2h320v64h-231l231 259.8v60.2h-320zM802.8 365l-162.2-365h70l28.4 64h186l28.4-64h70l-2.2 5-168.4 379h-41.6l-8.4-19zM832 273.2l64.6-145.2h-129.2l64.6 145.2z" />
<glyph unicode="&#xe959;" glyph-name="arrow-left" horiz-adv-x="896" d="M25.4 470.6l-22.6-22.6 381.2-381.2 45.2 45.2-304 304h770.8v64h-770.8l304 304-45.2 45.2-358.6-358.6z" />
<glyph unicode="&#xe95a;" glyph-name="arrow-left-from-line" horiz-adv-x="896" d="M25.4 470.6l-22.6-22.6 301.2-301.2 45.2 45.2-224 224h578.8v64h-578.8l224 224-45.2 45.2-278.6-278.6zM832 96v-32h64v768h-64v-736z" />
<glyph unicode="&#xe95b;" glyph-name="arrow-left-long" d="M22.6 470.6l-22.6-22.6 333.2-333.2 45.4 45.2-256 256h901.4v64h-901.4l256 256-45.4 45.2-310.6-310.6z" />
<glyph unicode="&#xe95c;" glyph-name="arrow-left-long-to-line" horiz-adv-x="1280" d="M0 800v-736h64v768h-64v-32zM256 448l333.2-333.2 45.4 45.2-256 256h901.4v64h-901.4l256 256-45.4 45.2-333.2-333.2z" />
<glyph unicode="&#xe95d;" glyph-name="arrow-left-to-line" horiz-adv-x="896" d="M0 96v-32h64v768h-64v-736zM201.4 470.6l-22.6-22.6 301.2-301.2 45.2 45.2-224 224h594.8v64h-594.8l224 224-45.2 45.2-278.6-278.6z" />
<glyph unicode="&#xe95e;" glyph-name="arrow-pointer" horiz-adv-x="640" d="M323 320h317l-0.2 64v20l-575.8 492-64-29.8v-770.2l58-63.6 209.4 255.2 119.4-268.8 58.4 26-122.2 275.2zM244.2 360.6l-180.2-219.8v671l500.6-427.8h-301l-19.2-23.4z" />
<glyph unicode="&#xe95f;" glyph-name="arrow-progress" d="M832 896v-128h128v128h-128zM768 960h256v-256h-256v256zM572 957l24.6-20.4 125.4-104.6-29.6-24.6-120.4-100.4-41 49 24.6 20.4 28 23.4h-519.6v-319.8h960v-448h-192v-96h-256v256h256v-96h128v320h-960v448h583.6l-52.6 44 41 49zM256 128v-32h135.6l-28.2 23.4-24.4 20.6 41 49 24.6-20.4 125.4-104.6-29.4-24.6-120.6-100.4-41 49 24.6 20.4 28 23.6h-135.6v-96h-256v256h256v-64zM192 128h-128v-128h128v128zM640 128v-128h128v128h-128z" />
<glyph unicode="&#xe960;" glyph-name="arrow-right" horiz-adv-x="896" d="M870.6 425.4l22.6 22.6-381.2 381.2-45.2-45.2 304-304h-770.8v-64h770.8l-304-304 45.2-45.2 358.6 358.6z" />
<glyph unicode="&#xe961;" glyph-name="arrow-right-arrow-left" horiz-adv-x="896" d="M25.4 169.4l-22.6 22.6 237.2 237.2 45.2-45.2-160-160h770.8v-64h-770.8l160-160-45.2-45.2-214.6 214.6zM870.6 681.4l-214.6-214.6-45.2 45.2 160 160h-770.8v64h770.8l-160 160 45.2 45.2 237.2-237.2-22.6-22.6z" />
<glyph unicode="&#xe962;" glyph-name="arrow-right-from-arc" d="M64 448c0 247.4 200.6 448 448 448h32v64h-32c-282.8 0-512-229.2-512-512s229.2-512 512-512h32v64h-32c-247.4 0-448 200.6-448 448zM709.2 728l-24 21.2-42.6-47.8 24-21.2 225.2-200.2h-571.8v-64h571.8l-249-221.2 42.6-47.8 24 21.2 315 280-315 280z" />
<glyph unicode="&#xe963;" glyph-name="arrow-right-from-bracket" d="M998.6 425.4l22.6 22.6-301.2 301.2-45.2-45.2 224-224h-578.8v-64h578.8l-224-224 45.2-45.2 278.6 278.6zM352 832h32v64h-384v-896h384v64h-320v768h288z" />
<glyph unicode="&#xe964;" glyph-name="arrow-right-from-line" horiz-adv-x="896" d="M870.6 425.4l22.6 22.6-301.2 301.2-45.2-45.2 224-224h-578.8v-64h578.8l-224-224 45.2-45.2 278.6 278.6zM64 800v32h-64v-768h64v736z" />
<glyph unicode="&#xe965;" glyph-name="arrow-right-long" d="M1001.4 425.4l22.6 22.6-333.2 333.2-45.4-45.2 256-256h-901.4v-64h901.4l-256-256 45.2-45.2 310.6 310.6z" />
<glyph unicode="&#xe966;" glyph-name="arrow-right-long-to-line" horiz-adv-x="1280" d="M1280 800v-736h-64v768h64v-32zM1024 448l-333.2-333.2-45.4 45.2 256 256h-901.4v64h901.4l-256 256 45.2 45.2 333.4-333.2z" />
<glyph unicode="&#xe967;" glyph-name="arrow-right-to-arc" d="M960 448c0 247.4-200.6 448-448 448h-32v64h32c282.8 0 512-229.2 512-512s-229.2-512-512-512h-32v64h32c247.4 0 448 200.6 448 448zM405.2 728l315-280-339-301.2-42.6 47.8 24 21.2 225.2 200.2h-587.8v64h587.8l-249 221.2 42.6 47.8 24-21.2z" />
<glyph unicode="&#xe968;" glyph-name="arrow-right-to-bracket" d="M694.6 425.4l22.6 22.6-301.2 301.2-45.2-45.2 224-224h-594.8v-64h594.8l-224-224 45.2-45.2 278.6 278.6zM672 64h-32v-64h384v896h-384v-64h320v-768h-288z" />
<glyph unicode="&#xe969;" glyph-name="arrow-right-to-city" horiz-adv-x="1280" d="M608 960h-32v-1024h64v960h320v-384h256v-576h64v640h-128v192h-64v-192h-64v384h-416zM704 832v-192h192v192h-192zM768 768h64v-64h-64v64zM992 448h-32v-192h192v192h-160zM1024 320v64h64v-64h-64zM960 192v-192h192v192h-192zM1024 128h64v-64h-64v64zM736 576h-32v-192h192v192h-160zM768 448v64h64v-64h-64zM704 320v-192h192v192h-192zM768 256h64v-64h-64v64zM310.6 662.6l-22.6 22.6-45.2-45.2 160-160h-402.8v-64h402.8l-160-160 45.2-45.2 237.2 237.2-214.6 214.6z" />
<glyph unicode="&#xe96a;" glyph-name="arrow-right-to-line" horiz-adv-x="896" d="M896 800v32h-64v-768h64v736zM694.6 425.4l22.6 22.6-301.2 301.2-45.2-45.2 224-224h-594.8v-64h594.8l-224-224 45.2-45.2 278.6 278.6z" />
<glyph unicode="&#xe96b;" glyph-name="arrow-rotate-left" d="M96 576h-32v320h64v-217.2c78.4 130.2 221 217.2 384 217.2 247.4 0 448-200.6 448-448s-200.6-448-448-448c-172.8 0-322.8 98-397.6 241.2l56.8 29.6c64.2-123 192.6-206.8 340.8-206.8 212 0 384 172 384 384s-172 384-384 384c-142 0-266.2-77.2-332.6-192h204.6v-64h-288z" />
<glyph unicode="&#xe96c;" glyph-name="arrow-rotate-right" d="M928 576h32v320h-64v-217.2c-78.4 130.2-221 217.2-384 217.2-247.4 0-448-200.6-448-448s200.6-448 448-448c172.8 0 322.8 98 397.6 241.2l-56.8 29.6c-64.2-123-192.6-206.8-340.8-206.8-212 0-384 172-384 384s172 384 384 384c142 0 266.2-77.2 332.6-192h-204.6v-64h288z" />
<glyph unicode="&#xe96d;" glyph-name="arrows-cross" horiz-adv-x="896" d="M576 896h-32v-64h242.8l-784-784 45.2-45.2 784 784v-242.8h64v352h-320zM70.6 870.6l-22.6 22.6-45.2-45.2 343.4-343.4 45.2 45.2-320.8 320.8zM504.6 346.2l282.2-282.2h-242.8v-64h352v352h-64v-242.8l-282.2 282.2-45.2-45.2z" />
<glyph unicode="&#xe96e;" glyph-name="arrows-down-to-line" horiz-adv-x="1152" d="M256 146.8l253.2 253.2-45.2 45.2-176-176v626.8h-64v-626.8l-176 176-45.2-45.2 253.2-253.2zM896 146.8l253.2 253.2-45.2 45.2-176-176v626.8h-64v-626.8l-176 176-45.2-45.2 253.2-253.2zM32 64h-32v-64h1152v64h-1120z" />
<glyph unicode="&#xe96f;" glyph-name="arrows-down-to-people" horiz-adv-x="1280" d="M256 928v-258.8l-96 96-45.2-45.2 173.2-173.2 173.2 173.2-45.2 45.2-96-96v290.8h-64v-32zM818.8 720l173.2-173.2 173.2 173.2-45.2 45.2-96-96v290.8h-64v-290.8l-96 96-45.2-45.2zM608 576c0 17.673 14.327 32 32 32s32-14.327 32-32v0c0-17.673-14.327-32-32-32s-32 14.327-32 32v0zM736 576c0 53.019-42.981 96-96 96s-96-42.981-96-96v0c0-53.019 42.981-96 96-96s96 42.981 96 96v0zM544 448h-17.8l-9.4-15.2-111.8-181.8-3 5h-227.8l-9.4-15.2-144.8-235.2 54.4-33.6 16.8 27.2 84.8 137.8v-201h224v201l101.6-165 54.4 33.6-16.8 27.2-96.6 157.2 0.8 1.2 84.6 137.8v-233h224v233l84.8-137.8 0.8-1.2-113.6-184.4 54.4-33.6 16.8 27.2 84.8 137.8v-201h224v201l101.6-165 54.4 33.6-16.8 27.2-137.4 223.2h-227.6l-3-5-121.2 197h-210zM592 160v224h96v-224h-96zM288 416c17.673 0 32-14.327 32-32s-14.327-32-32-32v0c-17.673 0-32 14.327-32 32s14.327 32 32 32v0zM288 288c53.019 0 96 42.981 96 96s-42.981 96-96 96v0c-53.019 0-96-42.981-96-96s42.981-96 96-96v0zM240 192h96v-192h-96v192zM960 384c0 17.673 14.327 32 32 32s32-14.327 32-32v0c0-17.673-14.327-32-32-32s-32 14.327-32 32v0zM1088 384c0 53.019-42.981 96-96 96s-96-42.981-96-96v0c0-53.019 42.981-96 96-96s96 42.981 96 96v0zM1040 0h-96v192h96v-192z" />
<glyph unicode="&#xe970;" glyph-name="arrows-from-dotted-line" horiz-adv-x="896" d="M448 957.2l205.2-205.2-45.2-45.2-128 128v-258.8h-64v258.8l-128-128-45.2 45.2 205.2 205.2zM448-61.4l-205.2 205.4 45.2 45.2 128-128v258.8h64v-258.8l128 128 45.2-45.2-205.2-205.2zM112 496v-96h-96v96h96zM208 496h96v-96h-96v96zM496 400h-96v96h96v-96zM592 496h96v-96h-96v96zM880 496v-96h-96v96h96z" />
<glyph unicode="&#xe971;" glyph-name="arrows-from-line" horiz-adv-x="896" d="M448 957.2l205.2-205.2-45.2-45.2-128 128v-258.8h-64v258.8l-128-128-45.2 45.2 205.2 205.2zM448-61.4l-205.2 205.4 45.2 45.2 128-128v258.8h64v-258.8l128 128 45.2-45.2-205.2-205.2zM32 480h864v-64h-896v64h32z" />
<glyph unicode="&#xe972;" glyph-name="arrows-left-right" d="M998.6 425.4l21.8 21.8-20.8 22.6-213.8 231.6-47-43.4 21.8-23.6 142.4-154.4h-777.8l160 160-45.2 45.2-237.2-237.2 237.2-237.2 45.2 45.2-160 160h773.4l-137.4-137.4-22.4-22.6 45.2-45.2 214.6 214.6z" />
<glyph unicode="&#xe973;" glyph-name="arrows-left-right-to-line" horiz-adv-x="1280" d="M64 832v-768h-64v768h64zM461.2 640l-160-160h677.4l-137.4 137.4-22.4 22.6 45.2 45.2 237.2-237.2-237.2-237.2-45.2 45.2 160 160h-677.4l137.4-137.4 22.4-22.6-45.2-45.2-237.2 237.2 237.2 237.2 45.2-45.2zM1280 800v-736h-64v768h64v-32z" />
<glyph unicode="&#xe974;" glyph-name="arrows-maximize" d="M672 896h-32v-64h210.8l-338.8-338.8-338.8 338.8h210.8v64h-320v-320h64v210.8l338.8-338.8-338.8-338.8v210.8h-64v-320h320v64h-210.8l338.8 338.8 338.8-338.8h-210.8v-64h320v320h-64v-210.8l-338.8 338.8 338.8 338.8v-210.8h64v320h-288z" />
<glyph unicode="&#xe975;" glyph-name="arrows-minimize" d="M112 893.2l272-272v242.8h64v-352h-352v64h242.8l-272 272 45.2 45.2zM957.2 848l-272-272h242.8v-64h-352v352h64v-242.8l272 272 45.2-45.2zM96 320v64h352v-352h-64v242.8l-272-272-45.2 45.2 272 272h-242.8zM576 384h352v-64h-242.8l272-272-45.2-45.2-272 272v-242.8h-64v352z" />
<glyph unicode="&#xe976;" glyph-name="arrows-repeat" d="M0 416v384h780.6l-121.8 109.6 42.8 47.6 210.2-189.2-26.4-23.8-183.8-165.4-42.8 47.6 121.8 109.6h-716.6v-320h-64zM1024 480v-384h-780.6l121.8-109.6-42.8-47.6-210.2 189.2 26.4 23.8 183.8 165.4 42.8-47.6-121.8-109.6h716.6v320h64z" />
<glyph unicode="&#xe977;" glyph-name="arrows-repeat-1" d="M0 448v-32h64v320h716.6l-121.8-109.6 42.8-47.6 210.2 189.2-26.4 23.8-183.8 165.4-42.8-47.6 121.8-109.6h-780.6v-352zM1024 448v32h-64v-320h-716.6l121.8 109.6-42.8 47.6-210.2-189.2 26.4-23.8 183.8-165.4 42.8 47.6-121.8 109.6h780.6v352zM480 576h-32v-64h64v-192h64v256h-96z" />
<glyph unicode="&#xe978;" glyph-name="arrows-retweet" horiz-adv-x="1280" d="M256 829.2l205.2-205.2-45.2-45.2-128 128v-514.8h416v-64h-480v578.8l-128-128-45.2 45.2 205.2 205.2zM1056 189.2l128 128 45.2-45.2-205.2-205.2-205.2 205.2 45.2 45.2 128-128v514.8h-416v64h480v-578.8z" />
<glyph unicode="&#xe979;" glyph-name="arrows-rotate" d="M133.4 512c30.4 181.6 188.4 320 378.6 320 142.2 0 266.2-77.2 332.6-192h-140.6v-64h256v256h-64v-153.2c-78.4 130.2-221 217.2-384 217.2-225.6 0-412.4-166.8-443.4-384h64.8zM512 64c-142.2 0-266.2 77.2-332.6 192h141v64h-256v-256h64v152.4c78.4-129.6 221-216.4 383.6-216.4 225.6 0 412.4 166.8 443.4 384h-64.6c-30.6-181.6-188.6-320-378.8-320z" />
<glyph unicode="&#xe97a;" glyph-name="arrows-spin" d="M514.2 801c-22.6 0-44.8-2.2-66.2-6.2v64.8c21.6 3.4 43.8 5.2 66.2 5.2 106.4 0 203.4-40 277-105.6l72.8 72.8 64-64v-192h-192l-64 64 74 74c-62 54.2-143 87-231.6 87zM98.2 449c0 106 39.6 202.6 104.8 276l-75 75 64 64h192v-192l-64-64-71.6 71.6c-53.6-61.8-86.2-142.4-86.2-230.6 0-22.2 2-43.8 6-65h-64.8c-3.4 21.2-5 42.8-5 65zM866.2 449c0 21.6-2 42.6-5.6 63h64.8c3.2-20.6 4.8-41.6 4.8-63 0-107.6-40.8-205.6-107.8-279.4l73.6-73.6-64-64h-192v192l64 64 73.2-73.2c55.4 62.2 89.2 144.2 89.2 234zM576 102.4v-64.8c-20.2-3-40.8-4.6-61.8-4.6-107 0-204.6 40.4-278.4 107l-30.6-30.6-45.2-45.4-64 64v192h192l64-64-70.8-70.8c62-55 143.6-88.2 233-88.2 21 0 41.6 1.8 61.8 5.4zM320 698.6v101.4h-101.4l101.4-101.4zM864 741.6l-101.4-101.6h101.4v101.4zM704 197.6v-101.6h101.4l-101.4 101.4zM160 154.6l101.4 101.4h-101.4v-101.4z" />
<glyph unicode="&#xe97b;" glyph-name="arrows-split-up-and-left" d="M470.6 697.4l-22.6-22.6-45.2 45.2 205.2 205.2v2.8h2.8l29.2 29.2 29.2-29.2h2.8v-2.8l205.2-205.2-45.2-45.2-160 160v-834.8h352v-64h-416v416h-482.8l160-160-45.2-45.2-237.2 237.2 237.2 237.2 45.2-45.2-160-160h482.8v418.8l-137.4-137.4z" />
<glyph unicode="&#xe97c;" glyph-name="arrows-to-circle" horiz-adv-x="1280" d="M70.6 934.6l-22.6 22.6-45.2-45.2 272-272h-146.8v-64h256v256h-64v-146.8l-249.4 249.4zM640 576c70.692 0 128-57.308 128-128s-57.308-128-128-128v0c-70.692 0-128 57.308-128 128s57.308 128 128 128v0zM640 256c106.039 0 192 85.961 192 192s-85.961 192-192 192v0c-106.039 0-192-85.961-192-192s85.961-192 192-192v0zM896 832v-256h256v64h-146.8l272 272-45.2 45.2-272-272v146.8h-64zM384 64v256h-256v-64h146.8l-272-272 45.2-45.2 272 272v-146.8h64zM896 64h64v146.8l272-272 45.2 45.2-272 272h146.8v64h-256v-256z" />
<glyph unicode="&#xe97d;" glyph-name="arrows-to-dot" d="M544 928v32h-64v-274.8l-128 128-45.2-45.2 205.2-205.2 205.2 205.2-45.2 45.2-128-128v242.8zM576 448c0 35.346-28.654 64-64 64s-64-28.654-64-64v0c0-35.346 28.654-64 64-64s64 28.654 64 64v0zM717.2 128l-205.2 205.2-205.2-205.2 45.2-45.2 128 128v-274.8h64v274.8l128-128 45.2 45.2zM192 653.2l-45.2-45.2 128-128h-274.8v-64h274.8l-128-128 45.2-45.2 205.2 205.2-205.2 205.2zM832 653.2l-205.2-205.2 205.2-205.2 45.2 45.2-128 128h274.8v64h-274.8l128 128-45.2 45.2z" />
<glyph unicode="&#xe97e;" glyph-name="arrows-to-dotted-line" horiz-adv-x="896" d="M448 562.8l205.2 205.2-45.2 45.2-128-128v274.8h-64v-274.8l-128 128-45.2-45.2 205.2-205.2zM16 496v-96h96v96h-96zM208 496v-96h96v96h-96zM400 496v-96h96v96h-96zM592 496v-96h96v96h-96zM880 496h-96v-96h96v96zM470.6 310.6l-22.6 22.6-205.2-205.2 45.2-45.2 128 128v-274.8h64v274.8l128-128 45.2 45.2-182.6 182.6z" />
<glyph unicode="&#xe97f;" glyph-name="arrows-to-eye" horiz-adv-x="1280" d="M64 941.2l-45.2-45.2 192-192h-146.8v-64h256v256h-64v-146.8l-192 192zM1193.4 918.6l-169.4-169.4v146.8h-64v-256h256v64h-146.8l192 192-45.2 45.2-22.6-22.6zM1261.2 0l-192 192h146.8v64h-256v-256h64v146.8l192-192 45.2 45.2zM18.8 0l45.2-45.2 192 192v-146.8h64v256h-256v-64h146.8l-192-192zM640 544c53.019 0 96-42.981 96-96s-42.981-96-96-96v0c-53.019 0-96 42.981-96 96s42.981 96 96 96v0zM640 288c88.366 0 160 71.634 160 160s-71.634 160-160 160v0c-88.366 0-160-71.634-160-160s71.634-160 160-160v0zM427.4 314.8c-46.6 43.2-80.6 93.8-100.8 133.2 20.2 39.2 54.2 89.8 100.8 133.2 56.6 52.4 127.8 90.8 212.6 90.8s156-38.4 212.6-90.8c46.6-43.2 80.6-93.8 100.8-133.2-20.2-39.2-54.2-89.8-100.8-133.2-56.6-52.4-127.8-90.8-212.6-90.8s-156 38.4-212.6 90.8zM640 160c211.2 0 344 192 384 288-40 96-172.8 288-384 288s-344-192-384-288c40-96 172.8-288 384-288z" />
<glyph unicode="&#xe980;" glyph-name="arrows-to-line" horiz-adv-x="896" d="M448 562.8l205.2 205.2-45.2 45.2-128-128v274.8h-64v-274.8l-128 128-45.2-45.2 205.2-205.2zM0 480v-64h896v64h-896zM470.6 310.6l-22.6 22.6-205.2-205.2 45.2-45.2 128 128v-274.8h64v274.8l128-128 45.2 45.2-182.6 182.6z" />
<glyph unicode="&#xe981;" glyph-name="arrows-turn-right" horiz-adv-x="896" d="M645 936.2l-24.2 21-42-48.4 24.2-21 175.2-151.8h-778.2v-352h64v288h714.2l-199.4-172.8 42-48.4 24.2 21 268 232.2-28 24.2-240 208zM453 424.2l-24.2 21-42-48.4 24.2-21 175.2-151.8h-586.2v-288h64v224h522.2l-199.4-172.8 42-48.4 24.2 21 268 232.2-28 24.2-240 208z" />
<glyph unicode="&#xe982;" glyph-name="arrows-turn-to-dots" d="M521.4 886.6l-182.6-182.6 205.2-205.2 45.2 45.2-128 128h498.8v-224h64v288h-562.8l128 128-45.2 45.2-22.6-22.6zM502.6 374.6l-22.6 22.6-45.2-45.2 128-128h-562.8v-288h64v224h498.8l-128-128 45.2-45.2 205.2 205.2-182.6 182.6zM896 256c35.346 0 64-28.654 64-64s-28.654-64-64-64v0c-35.346 0-64 28.654-64 64s28.654 64 64 64v0zM896 64c70.692 0 128 57.308 128 128s-57.308 128-128 128v0c-70.692 0-128-57.308-128-128s57.308-128 128-128v0zM192 704c0-35.346-28.654-64-64-64s-64 28.654-64 64v0c0 35.346 28.654 64 64 64s64-28.654 64-64v0zM0 704c0-70.692 57.308-128 128-128s128 57.308 128 128v0c0 70.692-57.308 128-128 128s-128-57.308-128-128v0z" />
<glyph unicode="&#xe983;" glyph-name="arrows-up-down" horiz-adv-x="640" d="M342.6 934.6l-21.8 21.8-22.6-20.8-231.4-213.8 43.4-47 177.8 164.2v-777.8l-160 160-45.2-45.2 237.2-237.2 237.2 237.2-45.2 45.2-160-160v773.6l160-160 45.2 45.2-214.6 214.6z" />
<glyph unicode="&#xe984;" glyph-name="arrows-up-down-left-right" d="M534.6 934.6l-22.6 22.6-189.2-189.2 45.2-45.2 112 112v-354.8h-354.8l112 112-45.2 45.2-189.2-189.2 189.2-189.2 45.2 45.2-112 112h354.8v-354.8l-112 112-45.2-45.2 189.2-189.2 189.2 189.2-45.2 45.2-112-112v354.8h354.8l-112-112 45.2-45.2 189.2 189.2-189.2 189.2-45.2-45.2 112-112h-354.8v354.8l112-112 45.2 45.2-166.6 166.6z" />
<glyph unicode="&#xe985;" glyph-name="arrows-up-to-line" horiz-adv-x="1152" d="M32 832h-32v64h1152v-64h-1120zM256 749.2l253.2-253.2-45.2-45.2-176 176v-626.8h-64v626.8l-176-176-45.2 45.2 253.2 253.2zM896 749.2l253.2-253.2-45.2-45.2-176 176v-626.8h-64v626.8l-176-176-45.2 45.2 253.2 253.2z" />
<glyph unicode="&#xe986;" glyph-name="arrow-trend-down" horiz-adv-x="1152" d="M736 128h416v416h-64v-306.8l-448 448-256-256-329.4 329.4-45.2-45.2 374.6-374.6 256 256 402.8-402.8h-306.8v-64z" />
<glyph unicode="&#xe987;" glyph-name="arrow-trend-up" horiz-adv-x="1152" d="M736 768h416v-416h-64v306.8l-448-448-256 256-329.4-329.4-45.2 45.2 374.6 374.6 256-256 402.8 402.8h-306.8v64z" />
<glyph unicode="&#xe988;" glyph-name="arrow-turn-down" horiz-adv-x="768" d="M32 896h-32v64h416v-914.8l224 224 45.2-45.2-301.2-301.2-301.2 301.2 45.2 45.2 224-224v850.8h-320z" />
<glyph unicode="&#xe989;" glyph-name="arrow-turn-down-left" d="M960 864v32h64v-544h-914.8l224-224-45.2-45.2-301.2 301.2 301.2 301.2 45.2-45.2-224-224h850.8v448z" />
<glyph unicode="&#xe98a;" glyph-name="arrow-turn-down-right" d="M64 864v32h-64v-544h914.8l-224-224 45.2-45.2 301.2 301.2-301.2 301.2-45.2-45.2 224-224h-850.8v448z" />
<glyph unicode="&#xe98b;" glyph-name="arrow-turn-up" horiz-adv-x="768" d="M32 0h-32v-64h416v914.8l224-224 45.2 45.2-301.2 301.2-301.2-301.2 45.2-45.2 224 224v-850.8h-320z" />
<glyph unicode="&#xe98c;" glyph-name="arrow-up" horiz-adv-x="768" d="M406.6 870.6l-22.6 22.6-381.2-381.2 45.2-45.2 304 304v-770.8h64v770.8l304-304 45.2 45.2-358.6 358.6z" />
<glyph unicode="&#xe98d;" glyph-name="arrow-up-1-9" horiz-adv-x="1152" d="M736 896h160v-320h96v-64h-256v64h96v256h-96v64zM320 893.2l221.2-221.2-45.2-45.2-144 144v-770.8h-64v770.8l-144-144-45.2 45.2 221.2 221.2zM856 384c-57.438 0-104-46.562-104-104s46.562-104 104-104v0c57.438 0 104 46.562 104 104s-46.562 104-104 104v0zM688 280c0 92.8 75.2 168 168 168s168-75.2 168-168c0-2.6 0-5.4-0.2-8h0.2c0-42.2-14.2-83.2-40.4-116.2l-123.4-155.8h-80.8c1 1.8 2 3.6 3.4 5.4l84.8 107c-3.8-0.2-7.8-0.4-11.6-0.4-92.8 0-168 75.2-168 168z" />
<glyph unicode="&#xe98e;" glyph-name="arrow-up-9-1" horiz-adv-x="1152" d="M856 832c-57.438 0-104-46.562-104-104s46.562-104 104-104v0c57.438 0 104 46.562 104 104s-46.562 104-104 104v0zM688 728c0 92.8 75.2 168 168 168s168-75.2 168-168c0-2.6 0-5.4-0.2-8h0.2c0-42.2-14.2-83.2-40.4-116.2l-123.4-155.8h-80.8c1 1.8 2 3.6 3.4 5.4l84.8 107c-3.8-0.2-7.8-0.4-11.6-0.4-92.8 0-168 75.2-168 168zM320 893.2l221.2-221.2-45.2-45.2-144 144v-770.8h-64v770.8l-144-144-45.2 45.2 221.2 221.2zM736 320v64h160v-320h96v-64h-256v64h96v256h-96z" />
<glyph unicode="&#xe98f;" glyph-name="arrow-up-arrow-down" horiz-adv-x="1152" d="M854.6 25.4l214.6 214.6-45.2 45.2-160-160v770.8h-64v-770.8l-160 160-45.2-45.2 237.2-237.2 22.6 22.6zM342.6 870.6l-22.6 22.6-237.2-237.2 45.2-45.2 160 160v-770.8h64v770.8l160-160 45.2 45.2-214.6 214.6z" />
<glyph unicode="&#xe990;" glyph-name="arrow-up-a-z" horiz-adv-x="1152" d="M811.2 896l-8.4-19-162.2-365h70l28.4 64h186l28.4-64h70l-2.2 5-168.4 379h-41.6zM896.6 640h-129.2l64.6 145.2 64.6-145.2zM342.6 870.6l-22.6 22.6-221.2-221.2 45.2-45.2 144 144v-770.8h64v770.8l144-144 45.2 45.2-198.6 198.6zM704 384h-32v-64h231l-231-259.8v-60.2h320v64h-231l231 259.8v60.2h-288z" />
<glyph unicode="&#xe991;" glyph-name="arrow-up-big-small" horiz-adv-x="1152" d="M640 896h448v-448h-448v448zM704 512h320v320h-320v-320zM320 893.2l221.2-221.2-45.2-45.2-144 144v-770.8h-64v770.8l-144-144-45.2 45.2 221.2 221.2zM704 320h256v-320h-320v320h64zM896 256h-192v-192h192v192z" />
<glyph unicode="&#xe992;" glyph-name="arrow-up-from-arc" d="M512 0c-247.4 0-448 200.6-448 448v32h-64v-32c0-282.8 229.2-512 512-512s512 229.2 512 512v32h-64v-32c0-247.4-200.6-448-448-448zM232 645.2l-21.2-24 47.8-42.6 21.2 24 200.2 225.2v-571.8h64v571.8l221.2-249 47.8 42.6-21.2 24-279.8 314.8-280-315z" />
<glyph unicode="&#xe993;" glyph-name="arrow-up-from-bracket" horiz-adv-x="896" d="M470.6 934.6l-22.6 22.6-301.2-301.2 45.2-45.2 224 224v-578.8h64v578.8l224-224 45.2 45.2-278.6 278.6zM64 288v32h-64v-384h896v384h-64v-320h-768v288z" />
<glyph unicode="&#xe994;" glyph-name="arrow-up-from-dotted-line" horiz-adv-x="896" d="M470.6 870.6l-22.6 22.6-301.2-301.2 45.2-45.2 224 224v-514.8h64v514.8l224-224 45.2 45.2-278.6 278.6zM112 112h-96v-96h96v96zM304 112h-96v-96h96v96zM400 16h96v96h-96v-96zM688 112h-96v-96h96v96zM784 112v-96h96v96h-96z" />
<glyph unicode="&#xe995;" glyph-name="arrow-up-from-ground-water" horiz-adv-x="1152" d="M608 256v578.8l160-160 45.2 45.2-237.2 237.2-237.2-237.2 45.2-45.2 160 160v-578.8h64zM64 576h-64v-446c20.4 0 42.6 5.4 64 13.4v368.6h320v64h-320zM1152 130v446h-384v-64h320v-368.6c21.4-8 43.6-13.4 64-13.4zM384 0c-41.8 0-83.4 19.8-116.4 42.4-29.2 20-52 43-75.6 68.4-23.8-25.6-46.2-48.4-75.6-68.4-33-22.6-74.6-42.4-116.4-42.4v-64c60.6 0 115 28.2 152.4 53.6 15.8 10.8 29.2 21.6 39.6 30.6 10.2-9 23.8-19.8 39.6-30.6 37.2-25.4 91.8-53.6 152.4-53.6s115 28.2 152.4 53.6c15.8 10.8 29.2 21.6 39.6 30.6 10.2-9 23.8-19.8 39.6-30.6 37.2-25.4 91.8-53.6 152.4-53.6s115 28.2 152.4 53.6c15.8 10.8 29.2 21.6 39.6 30.6 10.2-9 23.8-19.8 39.6-30.6 37.4-25.4 91.8-53.6 152.4-53.6v64c-41.8 0-83.4 19.8-116.4 42.4-29.4 20-51.8 43-75.6 68.4-23.8-25.6-46.2-48.4-75.6-68.4-33.2-22.6-74.6-42.4-116.4-42.4s-83.4 19.8-116.4 42.4c-29.4 20-51.8 43-75.6 68.4-23.8-25.6-46.2-48.4-75.6-68.4-33.2-22.6-74.6-42.4-116.4-42.4z" />
<glyph unicode="&#xe996;" glyph-name="arrow-up-from-line" horiz-adv-x="768" d="M406.6 870.6l-22.6 22.6-301.2-301.2 45.2-45.2 224 224v-578.8h64v578.8l224-224 45.2 45.2-278.6 278.6zM32 64h-32v-64h768v64h-736z" />
<glyph unicode="&#xe997;" glyph-name="arrow-up-from-square" d="M534.6 934.6l-22.6 22.6-253.2-253.2 45.2-45.2 176 176v-546.8h64v546.8l176-176 45.2 45.2-230.6 230.6zM32 896h-32v-960h1024v960h-224v-64h160v-832h-896v832h160v64h-192z" />
<glyph unicode="&#xe998;" glyph-name="arrow-up-from-water-pump" horiz-adv-x="1152" d="M192 896v-448h320v448h-320zM576 896v-448h288v386.8l-160-160-45.2 45.2 237.2 237.2 237.2-237.2-45.2-45.2-160 160v-386.8h224v-318c-20.4 0-42.6 5.4-64 13.4v240.6h-1024v-240.6c-21.4-8-43.6-13.4-64-13.4v318h128v512h448v-64zM384 0c41.8 0 83.2 19.8 116.4 42.4 29.4 20 51.8 43 75.6 68.4 23.8-25.6 46.2-48.4 75.6-68.4 33-22.6 74.6-42.4 116.4-42.4s83.2 19.8 116.4 42.4c29.4 20 51.8 43 75.6 68.4 23.8-25.6 46.2-48.4 75.6-68.4 33.2-22.6 74.6-42.4 116.4-42.4v-64c-60.6 0-115.2 28.2-152.4 53.6-15.8 10.8-29.4 21.6-39.6 30.6-10.2-9-23.8-19.8-39.6-30.6-37.4-25.4-91.8-53.6-152.4-53.6s-115.2 28.2-152.4 53.6c-15.8 10.8-29.4 21.6-39.6 30.6-10.2-9-23.6-19.8-39.6-30.6-37.4-25.4-91.8-53.6-152.4-53.6s-115.2 28.2-152.4 53.6c-15.8 10.8-29.2 21.6-39.6 30.6-10.2-9-23.6-19.6-39.6-30.6-37.2-25.4-91.8-53.6-152.4-53.6v64c41.8 0 83.2 19.8 116.4 42.4 29.4 20 51.8 43 75.6 68.4 23.8-25.4 46.4-48.6 75.6-68.4 33-22.6 74.6-42.4 116.4-42.4z" />
<glyph unicode="&#xe999;" glyph-name="arrow-up-left" horiz-adv-x="768" d="M96 768h-32v-512h64v402.8l528-528 45.2 45.2-528 528h402.8v64h-480z" />
<glyph unicode="&#xe99a;" glyph-name="arrow-up-left-from-circle" d="M32 960h-32v-384h64v274.8l560-560 45.2 45.2-560 560h274.8v64h-352zM576 832h-32v-64h32c212 0 384-172 384-384s-172-384-384-384-384 172-384 384v32h-64v-32c0-247.4 200.6-448 448-448s448 200.6 448 448-200.6 448-448 448z" />
<glyph unicode="&#xe99b;" glyph-name="arrow-up-long" horiz-adv-x="768" d="M406.6 937.4l-22.6 22.6-333.2-333.2 45.2-45.4 256 256v-901.4h64v901.4l256-256 45.2 45.2-310.6 310.6z" />
<glyph unicode="&#xe99c;" glyph-name="arrow-up-right" horiz-adv-x="768" d="M672 768h32v-512h-64v402.8l-528-528-45.2 45.2 528 528h-402.8v64h480z" />
<glyph unicode="&#xe99d;" glyph-name="arrow-up-right-and-arrow-down-left-from-center" d="M585.4 566.6l-22.6-22.6 45.2-45.2 352 352v-242.8h64v352h-352v-64h242.8l-329.4-329.4zM438.6 329.4l22.6 22.6-45.2 45.2-352-352v242.8h-64v-352h352v64h-242.8l329.4 329.4z" />
<glyph unicode="&#xe99e;" glyph-name="arrow-up-right-dots" horiz-adv-x="1152" d="M288 960h-32v-64h274.8l-528-528 45.2-45.2 528 528v-274.8h64v384h-352zM1056 832c17.673 0 32-14.327 32-32s-14.327-32-32-32v0c-17.673 0-32 14.327-32 32s14.327 32 32 32v0zM1056 704c53.019 0 96 42.981 96 96s-42.981 96-96 96v0c-53.019 0-96-42.981-96-96s42.981-96 96-96v0zM800 576c17.673 0 32-14.327 32-32s-14.327-32-32-32v0c-17.673 0-32 14.327-32 32s14.327 32 32 32v0zM800 448c53.019 0 96 42.981 96 96s-42.981 96-96 96v0c-53.019 0-96-42.981-96-96s42.981-96 96-96v0zM768 288c0 17.673 14.327 32 32 32s32-14.327 32-32v0c0-17.673-14.327-32-32-32s-32 14.327-32 32v0zM896 288c0 53.019-42.981 96-96 96s-96-42.981-96-96v0c0-53.019 42.981-96 96-96s96 42.981 96 96v0zM800 64c17.673 0 32-14.327 32-32s-14.327-32-32-32v0c-17.673 0-32 14.327-32 32s14.327 32 32 32v0zM800-64c53.019 0 96 42.981 96 96s-42.981 96-96 96v0c-53.019 0-96-42.981-96-96s42.981-96 96-96v0zM1056 64c17.673 0 32-14.327 32-32s-14.327-32-32-32v0c-17.673 0-32 14.327-32 32s14.327 32 32 32v0zM1056-64c53.019 0 96 42.981 96 96s-42.981 96-96 96v0c-53.019 0-96-42.981-96-96s42.981-96 96-96v0zM512 288c0 17.673 14.327 32 32 32s32-14.327 32-32v0c0-17.673-14.327-32-32-32s-32 14.327-32 32v0zM640 288c0 53.019-42.981 96-96 96s-96-42.981-96-96v0c0-53.019 42.981-96 96-96s96 42.981 96 96v0zM544 64c17.673 0 32-14.327 32-32s-14.327-32-32-32v0c-17.673 0-32 14.327-32 32s14.327 32 32 32v0zM544-64c53.019 0 96 42.981 96 96s-42.981 96-96 96v0c-53.019 0-96-42.981-96-96s42.981-96 96-96v0zM256 32c0 17.673 14.327 32 32 32s32-14.327 32-32v0c0-17.673-14.327-32-32-32s-32 14.327-32 32v0zM384 32c0 53.019-42.981 96-96 96s-96-42.981-96-96v0c0-53.019 42.981-96 96-96s96 42.981 96 96v0zM1056 320c17.673 0 32-14.327 32-32s-14.327-32-32-32v0c-17.673 0-32 14.327-32 32s14.327 32 32 32v0zM1056 192c53.019 0 96 42.981 96 96s-42.981 96-96 96v0c-53.019 0-96-42.981-96-96s42.981-96 96-96v0zM1024 544c0 17.673 14.327 32 32 32s32-14.327 32-32v0c0-17.673-14.327-32-32-32s-32 14.327-32 32v0zM1152 544c0 53.019-42.981 96-96 96s-96-42.981-96-96v0c0-53.019 42.981-96 96-96s96 42.981 96 96v0z" />
<glyph unicode="&#xe99f;" glyph-name="arrow-up-right-from-square" d="M672 960h-32v-64h274.8l-512-512 45.2-45.2 512 512v-274.8h64v384h-352zM32 832h-32v-896h896v448h-64v-384h-768v768h384v64h-416z" />
<glyph unicode="&#xe9a0;" glyph-name="arrow-up-short-wide" horiz-adv-x="1152" d="M278.6 870.6l-22.6 22.6-221.2-221.2 45.2-45.2 144 144v-770.8h64v770.8l144-144 45.2 45.2-198.6 198.6zM608 864h-32v-64h192v64h-160zM608 608h-32v-64h320v64h-288zM608 352h-32v-64h448v64h-416zM608 96h-32v-64h576v64h-544z" />
<glyph unicode="&#xe9a1;" glyph-name="arrow-up-small-big" horiz-adv-x="1152" d="M704 576h-64v320h320v-320h-256zM896 640v192h-192v-192h192zM320 893.2l221.2-221.2-45.2-45.2-144 144v-770.8h-64v770.8l-144-144-45.2 45.2 221.2 221.2zM640 0v448h448v-448h-448zM1024 384h-320v-320h320v320z" />
<glyph unicode="&#xe9a2;" glyph-name="arrow-up-square-triangle" horiz-adv-x="1152" d="M704 832v-256h256v256h-256zM640 896h384v-384h-384v384zM320 893.2l221.2-221.2-45.2-45.2-144 144v-770.8h-64v770.8l-144-144-45.2 45.2 221.2 221.2zM592 0l240 384 37.8-60.4 202.2-323.6h-480zM956.6 64l-124.6 199.2-124.6-199.2h249.2z" />
<glyph unicode="&#xe9a3;" glyph-name="arrow-up-to-dotted-line" horiz-adv-x="896" d="M112 880h-96v-96h96v96zM304 880h-96v-96h96v96zM400 880v-96h96v96h-96zM688 880h-96v-96h96v96zM784 880v-96h96v96h-96zM470.6 630.6l-22.6 22.6-301.2-301.2 45.2-45.2 224 224v-530.8h64v530.8l224-224 45.2 45.2-278.6 278.6z" />
<glyph unicode="&#xe9a4;" glyph-name="arrow-up-to-line" horiz-adv-x="768" d="M32 896h-32v-64h768v64h-736zM406.6 694.6l-22.6 22.6-301.2-301.2 45.2-45.2 224 224v-594.8h64v594.8l224-224 45.2 45.2-278.6 278.6z" />
<glyph unicode="&#xe9a5;" glyph-name="arrow-up-triangle-square" horiz-adv-x="1152" d="M592 512l240 384 37.8-60.4 202.2-323.6h-480zM956.6 576l-124.6 199.2-124.6-199.2h249.2zM320 893.2l221.2-221.2-45.2-45.2-144 144v-770.8h-64v770.8l-144-144-45.2 45.2 221.2 221.2zM704 64h256v256h-256v-256zM640 384h384v-384h-384v384z" />
<glyph unicode="&#xe9a6;" glyph-name="arrow-up-wide-short" horiz-adv-x="1152" d="M278.6 870.6l-22.6 22.6-221.2-221.2 45.2-45.2 144 144v-770.8h64v770.8l144-144 45.2 45.2-198.6 198.6zM608 32h160v64h-192v-64h32zM608 288h288v64h-320v-64h32zM608 544h416v64h-448v-64h32zM608 800h544v64h-576v-64h32z" />
<glyph unicode="&#xe9a7;" glyph-name="arrow-up-z-a" horiz-adv-x="1152" d="M672 896h320v-60.2l-231-259.8h231v-64h-320v60.2l231 259.8h-231v64zM320 893.2l221.2-221.2-45.2-45.2-144 144v-770.8h-64v770.8l-144-144-45.2 45.2 221.2 221.2zM802.8 365l8.4 19h41.6l8.4-19 162.2-365h-70l-28.4 64h-186l-28.4-64h-70l2.2 5 160 360zM832 273.2l-64.6-145.2h129l-64.4 145.2z" />
<glyph unicode="&#xe9a8;" glyph-name="asterisk" horiz-adv-x="768" d="M416 896v-389.8l302.8 192.8 34.4-54-309.6-197 309.6-197-34.4-54-302.8 192.8v-389.8h-64v389.8l-302.8-192.8-34.4 54 309.6 197-309.6 197 34.4 54 302.8-192.8v389.8h64z" />
<glyph unicode="&#xe9a9;" glyph-name="at" d="M512 896c-247.4 0-448-200.6-448-448s200.6-448 448-448h32v-64h-32c-282.8 0-512 229.2-512 512s229.2 512 512 512 512-229.2 512-512v-224h-176c-66.8 0-125 37.4-154.8 92.2-40.8-56-106.8-92.2-181.2-92.2-123.8 0-224 100.2-224 224s100.2 224 224 224c62.6 0 119.4-25.8 160-67.2v35.2h64v-240c0-61.8 50.2-112 112-112h112v160c0 247.4-200.6 448-448 448zM672 448c0 88.366-71.634 160-160 160s-160-71.634-160-160v0c0-88.366 71.634-160 160-160s160 71.634 160 160v0z" />
<glyph unicode="&#xe9aa;" glyph-name="atom" d="M644 117.4c-0.6-1.4-1.2-2.6-1.8-3.8-39.4-83-86.2-113.6-130.2-113.6s-90.8 30.6-130.2 113.4c-0.6 1.2-1.2 2.6-1.8 3.8 42.2 10 86.6 25.2 132 45.2 45.4-19.8 89.8-35 132-45.2zM434.2 200.4c-26.8-9.6-52.8-17.2-77.4-22.8-8 25.2-14.8 52.6-20.2 81.8 16.8-11.4 34.2-22.4 52-33.2 15.2-9.2 30.4-17.8 45.6-26zM667 177.6c-24.6 5.6-50.6 13-77.4 22.8 15.2 8.2 30.4 16.8 45.6 26 17.8 10.8 35.2 21.8 52 33.2-5.6-29.2-12.4-56.6-20.2-81.8zM602.4 281.2c-30.6-18.4-60.8-34.4-90.4-48.4-29.6 14-59.8 30.2-90.4 48.4-35 21-67.4 43-97 65.6-3 32.4-4.6 66.2-4.6 101.2s1.6 68.8 4.6 101.2c29.6 22.6 62.2 44.6 97 65.6 30.6 18.4 60.8 34.4 90.4 48.4 29.6-14 59.8-30.2 90.4-48.4 35-21 67.4-43 97-65.6 3-32.4 4.6-66.2 4.6-101.2s-1.6-68.8-4.6-101.2c-29.6-22.6-62.2-44.6-97-65.6zM731 167.8c13.2 44.2 23 93.2 29.2 145.4 33.4 27 63.4 55 89.4 83.6l1.6-2.4c50-75.4 53.6-132.2 32-171.2-20.8-37.4-67.2-62-152.2-55.4zM767.2 404.2c0.6 14.4 0.8 29 0.8 43.8s-0.2 29.4-0.8 43.8c15.4-14.6 29.6-29.2 42.6-43.8-13-14.6-27.2-29.4-42.6-43.8zM939.2 192c41.4 74.2 18.8 165.6-47.2 256 66 90.4 88.6 181.8 47.2 256-40.4 72.6-125 98.6-230.4 86.4-44 104.2-111.2 169.6-196.8 169.6s-152.8-65.4-196.8-169.6c-105.4 12.2-190-13.6-230.4-86.4-41.4-74.2-18.8-165.6 47.2-256-66-90.4-88.6-181.8-47.2-256 40.4-72.6 125-98.6 230.4-86.4 44-104.2 111.4-169.6 196.8-169.6s152.8 65.4 196.8 169.6c105.4-12.2 190 13.6 230.4 86.4zM883.2 672.8c21.6-39 18.2-95.8-32-171.2l-1.6-2.4c-26 28.4-56 56.4-89.4 83.6-6.2 52.2-16 101.2-29.2 145.4 85.2 6.6 131.4-17.8 152.2-55.4zM642.2 782.6c0.6-1.2 1.2-2.6 1.8-3.8-42.2-10-86.6-25.2-132-45.2-45.4 19.8-89.8 35-132 45.2 0.6 1.4 1.2 2.6 1.8 3.8 39.4 82.8 86.2 113.4 130.2 113.4s90.8-30.6 130.2-113.4zM667.2 718.4c8-25.2 14.8-52.6 20.2-81.8-16.8 11.4-34.2 22.4-52 33-15.2 9.2-30.4 17.8-45.6 26 26.8 9.6 52.8 17.2 77.4 22.6zM357 718.4c24.6-5.6 50.6-13 77.4-22.6-15.2-8.2-30.4-16.8-45.6-26-17.8-10.8-35.2-21.8-52-33 5.6 29.2 12.4 56.6 20.2 81.8zM293 728.2c-13.2-44.2-23-93.2-29.2-145.4-33.4-27-63.4-55-89.4-83.6l-1.6 2.4c-50 75.4-53.6 132.2-32 171.2 20.8 37.4 67.2 62 152.2 55.4zM172.6 394.4l1.6 2.4c26-28.4 56-56.4 89.4-83.6 6.2-52.2 16-101.2 29.2-145.4-85.2-6.6-131.4 17.8-152.2 55.4-21.6 39-18.2 95.8 32 171.2zM256.8 492c-0.6-14.4-0.8-29-0.8-43.8s0.2-29.4 0.8-43.8c-15.4 14.6-29.6 29.2-42.6 43.8 13 14.6 27.2 29.4 42.6 43.8zM448 448l64-64 64 64-64 64-64-64z" />
<glyph unicode="&#xe9ab;" glyph-name="atom-simple" d="M350.2 83.8c-101.6-33.8-164.6-20.2-193.4 8.8s-42.6 92-8.8 193.4c10.8 32.4 25.8 66.6 45 101.8 33.6-47.6 73.4-94.8 118.8-140.2s92.6-85.2 140.2-118.8c-35.2-19.2-69.4-34.4-101.8-45zM111.4 848.6c-78.4-78.4-56.2-236.4 42.2-400.6-98.4-164.2-120.6-322.2-42.2-400.6s236.4-56.2 400.6 42.2c164.2-98.4 322.2-120.6 400.6-42.2s56.2 236.4-42.2 400.6c98.4 164.2 120.6 322.2 42.2 400.6s-236.4 56.2-400.6-42.2c-164.2 98.4-322.2 120.6-400.6 42.2zM357 293c-50.6 50.6-93.2 103.2-127.6 155 34.4 51.8 77.2 104.6 127.6 155s103.2 93.2 155 127.6c51.8-34.4 104.6-77.2 155-127.6s93.2-103.2 127.6-155c-34.4-51.8-77.2-104.6-127.6-155s-103.2-93.2-155-127.6c-51.8 34.4-104.6 77.2-155 127.6zM311.6 648.4c-45.4-45.4-85.2-92.6-118.8-140.2-19.2 35.2-34.4 69.4-45 101.8-33.8 101.6-20 164.6 8.8 193.4s92 42.6 193.4 8.8c32.4-10.8 66.6-25.8 101.8-45-47.6-33.6-94.8-73.4-140.2-118.8zM712.2 648.4c-45.4 45.4-92.6 85.2-140.2 118.8 35.2 19.2 69.4 34.4 101.8 45 101.6 33.8 164.6 20 193.4-8.8s42.6-92 8.8-193.4c-10.8-32.4-25.8-66.6-45-101.8-33.6 47.6-73.4 94.8-118.8 140.2zM712.2 247.8c45.4 45.4 85.2 92.6 118.8 140.2 19.2-35.2 34.4-69.4 45-101.8 33.8-101.6 20.2-164.6-8.8-193.4s-92-42.6-193.4-8.8c-32.4 10.8-66.6 25.8-101.8 45 47.6 33.6 94.8 73.4 140.2 118.8zM448 448l64-64 64 64-64 64-64-64z" />
<glyph unicode="&#xe9ac;" glyph-name="audio-description" horiz-adv-x="1152" d="M1088 832v-768h-1024v768h1024zM64 896h-64v-896h1152v896h-1088zM608 640v-384h160c106 0 192 86 192 192s-86 192-192 192h-160zM672 576h96c70.6 0 128-57.4 128-128s-57.4-128-128-128h-96v256zM404.6 640h-41.2l-8.6-18.6-168-365.4h70.4l44.2 96h165.2l44.2-96h70.4l-176.6 384zM331 416l53 115.4 53-115.4h-106z" />
<glyph unicode="&#xe9ad;" glyph-name="audio-description-slash" horiz-adv-x="1280" d="M80.8 924l-25.2 19.8-39.4-50.6 25.2-19.6 1183.4-921.8 39.4 50.4-25.2 19.8-1158.2 902zM1216 832v64h-936.8l81-64h791.8v-625.2l64-50.6v675.8zM250.8 256h70.4l44.2 96h165.2l44.2-96h70.4l-18 39-153.2 121h-79l21 45.8-51.6 40.8-113.6-246.6zM64 739.6v-739.6h936.8l-81 64h-791.8v625.2l-64 50.4zM672 256h4.6l-4.6 3.6v-3.6zM1024 448c0 106-86 192-192 192h-160v-54.2l64-50.6v40.8h96c70.6 0 128-57.4 128-128 0-26.8-8.2-51.6-22.2-72l50.4-39.8c22.6 31.4 35.8 70 35.8 111.8z" />
<glyph unicode="&#xe9ae;" glyph-name="austral-sign" horiz-adv-x="896" d="M410.2 896h75.6l8-20.2 144-363.8h258.2v-64h-232.8l50.8-128h182v-64h-156.6l101.4-256h-68.8l-1.6 4.2-100 251.8h-444.8l-99.8-251.8-1.8-4.2h-68.8l11 27.8 90.4 228.2h-156.6v64h182l50.8 128h-232.8v64h258.2l152 384zM448 817.6l-121-305.6h242l-121 305.6zM250.8 320h394.4l-50.8 128h-292.8l-50.8-128z" />
<glyph unicode="&#xe9af;" glyph-name="avocado" d="M786.6 405.8l107.8 107.8c87.4 87.4 87.4 229.4 0 316.8s-229.4 87.4-316.8 0l-127-127-27.2 0.6c-92.6 2-185.6-32.4-256.2-103-137.4-137.4-137.4-360.4 0-497.8s360.4-137.4 497.8 0c70.6 70.6 105 163.6 103 256.2l-0.6 27.2 19.2 19.2zM939.6 468.2l-107.6-107.6c2.2-109.4-38.4-219.4-121.8-302.8-162.4-162.4-425.8-162.4-588.4 0s-162.4 425.8 0 588.4c83.4 83.4 193.4 124 302.8 121.8l107.8 107.8c112.4 112.4 294.8 112.4 407.2 0s112.4-294.8 0-407.2zM352.2 479.6c-76.4-76.4-80.8-176.2-32.8-224.2s147.8-43.6 224.2 32.8 80.8 176.2 32.8 224.2-147.8 43.6-224.2-32.8zM621.8 557.6c82.8-82.8 57.6-224.2-32.8-314.8s-232-115.6-314.8-32.8-57.6 224.2 32.8 314.8 232 115.6 314.8 32.8z" />
<glyph unicode="&#xe9b0;" glyph-name="award" horiz-adv-x="768" d="M472.4 906.2l-88.4 53.8-88.4-53.8-103.6 2.4-49.6-91-91-49.6 2.4-103.6-53.8-88.4 53.8-88.4-2.4-103.6 90.8-49.6 49.8-91 103.6 2.4 88.4-53.8 88.4 53.8 103.6-2.4 49.6 90.8 91 49.8-2.4 103.6 53.8 88.4-53.8 88.4 2.4 103.6-91 49.6-49.6 91-103.6-2.4zM538.4 843.8l40-73 73-40-1.6-64.6-0.4-18.8 9.8-16 33.8-55.4-33.6-55.2-9.8-16 0.4-18.8 1.6-64.6-73-40-9-16.4-31-56.6-83.4 2-16-9.8-55.2-33.6-71.2 43.4-18.8-0.4-64.6-1.6-30.8 56.6-9 16.4-16.4 9-56.8 31 1.6 64.6 0.4 18.8-9.8 16-33.6 55.2 33.6 55.2 9.8 16-0.4 18.8-1.6 64.6 56.6 30.8 16.4 9 9 16.4 31 56.6 83.4-2 71.2 43.6 71.2-43.4 18.8 0.4 64.6 1.6zM384 464c-61.856 0-112 50.144-112 112s50.144 112 112 112v0c61.856 0 112-50.144 112-112s-50.144-112-112-112v0zM208 576c0-97.202 78.798-176 176-176s176 78.798 176 176v0c0 97.202-78.798 176-176 176s-176-78.798-176-176v0zM27 112l-27-64h151.6l56.6-60.6 47.8-51.4 86.8 206.2-55.2 33.6-52.2-123.8-37 39.6-19 20.4h-83l41.2 97.6-1.6 3-37.6 68.8-71.4-169.4zM484.8 0.6l27.2-64.6 47.8 51.4 56.6 60.6h151.6l-27 64-71.4 169.4-37.6-68.6-1.6-3 41.2-97.8h-83l-19-20.4-37-39.6-52.2 123.8-55.2-33.6 59.6-141.6z" />
<glyph unicode="&#xe9b1;" glyph-name="award-simple" horiz-adv-x="768" d="M472.4 906.2l-88.4 53.8-88.4-53.8-103.6 2.4-49.6-91-91-49.6 2.4-103.6-53.8-88.4 53.8-88.4-2.4-103.6 90.8-49.6 49.8-91 103.6 2.4 88.4-53.8 88.4 53.8 103.6-2.4 49.6 90.8 91 49.8-2.4 103.6 53.8 88.4-53.8 88.4 2.4 103.6-91 49.6-49.6 91-103.6-2.4zM538.4 843.8l40-73 73-40-1.6-64.6-0.4-18.8 9.8-16 33.8-55.4-33.6-55.2-9.8-16 0.4-18.8 1.6-64.6-73-40-9-16.4-31-56.6-83.4 2-16-9.8-55.2-33.6-71.2 43.4-18.8-0.4-64.6-1.6-30.8 56.6-9 16.4-16.4 9-56.8 31 1.6 64.6 0.4 18.8-9.8 16-33.6 55.2 33.6 55.2 9.8 16-0.4 18.8-1.6 64.6 56.6 30.8 16.4 9 9 16.4 31 56.6 83.4-2 71.2 43.6 71.2-43.4 18.8 0.4 64.6 1.6zM384 464c-61.856 0-112 50.144-112 112s50.144 112 112 112v0c61.856 0 112-50.144 112-112s-50.144-112-112-112v0zM208 576c0-97.202 78.798-176 176-176s176 78.798 176 176v0c0 97.202-78.798 176-176 176s-176-78.798-176-176v0zM184.2 179.2l-39-168.4-17.2-74.8 256 96 256-96-17.2 74.8-38.8 168.4-9.4 0.2-56.6 1.4 33-143-167 62.6-166.8-62.6 33 143-66-1.6z" />
<glyph unicode="&#xe9b2;" glyph-name="axe" horiz-adv-x="1280" d="M128-64l-128 128 498.8 498.8 45.2-45.4-453.4-453.4 37.4-37.4 453.4 453.4 45.2-45.2-498.6-498.8zM978.8 786.8l-50.8-50.8 96-96h256v-64c0-247.4-200.6-448-448-448h-64v256l-320 320 256 256 96-96 96 96 128-128-45.2-45.2zM845.4 818.8l37.4-37.4 50.6 50.6-37.4 37.4-50.8-50.6zM1024 576h-26.6l-293.4 293.4-165.4-165.4 293.4-293.6v-218.4c212 0 384 172 384 384h-192z" />
<glyph unicode="&#xe9b3;" glyph-name="axe-battle" d="M1021.2 621.2l-45.2-45.2 46-46c-12-140.6-76.8-237.4-123.8-290.2-28.4-31.8-50.2-47.8-50.2-47.8s-8 25.6-27 60.6c-33 60.4-98.8 149-213 182.2v66.2c100.2-24 171-83.2 217.6-140.6 16.4-20.2 30-40.2 41-58.6 3.2 4 6.4 8.2 9.6 12.6 32.2 44.2 66.2 108.2 78.8 192.4l-24.2 24.2-45.4 45 69.4 69.4c-12.6 84.2-46.6 148.2-78.8 192.4-3.2 4.4-6.4 8.6-9.6 12.6-11-18.4-24.6-38.6-41-58.6-46.6-57.4-117.4-116.6-217.6-140.6v66c114.2 33.2 180 121.6 213 182.2 19.2 35 27.2 60.6 27.2 60.6s21.8-16 50.2-47.8c47-52.8 111.8-149.6 123.8-290.2l-0.8-0.8zM203 899.4c33-60.4 98.8-149 213-182.2v-66.2c-100.2 24-171 83.2-217.6 140.6-16.4 20.2-30 40.2-41 58.8-5.4-7-11-14.4-16.6-22.6-38.4-55.8-76.8-139.2-76.8-251.8s38.4-196 76.8-251.8c5.6-8.2 11.2-15.6 16.6-22.6 11 18.6 24.6 38.6 41 58.6 46.6 57.4 117.4 116.6 217.6 140.6v-66.2c-114.2-33.2-180-121.6-213-182.2-19-34.8-27-60.4-27-60.4s-21.8 16-50.2 47.8c-52 58.4-125.8 170.4-125.8 336.2s73.8 277.8 125.8 336.2c28.4 31.8 50.2 47.8 50.2 47.8s8-25.6 27-60.6zM544 864v-928h-64v960h64v-32z" />
<glyph unicode="&#xe9b4;" glyph-name="b" horiz-adv-x="640" d="M32 896h-32v-896h384c141.4 0 256 114.6 256 256 0 105.6-64 196.4-155.4 235.4 55.4 40.8 91.4 106.6 91.4 180.6 0 123.8-100.2 224-224 224h-320zM384 448c106 0 192-86 192-192s-86-192-192-192h-320v384h320zM352 512h-288v320h288c88.4 0 160-71.6 160-160s-71.6-160-160-160z" />
<glyph unicode="&#xe9b5;" glyph-name="baby" horiz-adv-x="896" d="M448 704c53.019 0 96 42.981 96 96s-42.981 96-96 96v0c-53.019 0-96-42.981-96-96s42.981-96 96-96v0zM448 960c88.366 0 160-71.634 160-160s-71.634-160-160-160v0c-88.366 0-160 71.634-160 160s71.634 160 160 160v0zM729.2 750.2l21.2-24 127.4-143.6-24-21.2-214.2-190.4v-46.4l84-114.4 23.2-31.8 9.4-12.6-4.4-15.2-11-37.8-41.6-144-8.8-30.8-30.4 9-184.6 53.2 8.8 30.8 26.4 91-39.4 54h-46.4l-39.4-53.8 26.4-91 8.8-30.8-30.8-8.8-184.6-53.4-8.8 30.8-41.6 144-11 37.8-4.4 15.2 9.4 12.6 107.2 146v46.4l-10.4 9.2-227.8 202.4 21.2 24 127.4 143.6 24-21.2 59.8-53.2 112.4-99.8h170.8l196 174.2zM172 659.8l-63.8-71.8 193.4-172h292.6l13.6 12.2 144 128 36 31.8-63.8 71.8-35.8-31.8-130.4-116h-219.6l-166.2 147.8zM576 352h-256v-34.8l77.2-77.2h101.4l77.4 77.2v34.8zM608.6 259.4l-68.6-68.6 31.8-43.2 9.4-12.6-4.4-15.2-22-75.8 92.2-26.6 32.8 113.2 6.6 22.6-14 19-63.8 87zM356.2 190.6l-68.6 68.6-63.8-87-14-19 6.6-22.6 32.8-113.2 92 26.6-26.2 90.6 9.4 12.6 31.8 43.2z" />
<glyph unicode="&#xe9b6;" glyph-name="baby-carriage" d="M512 576l-266 384c-141.4-71.6-239.8-216-245.8-384h-0.2v-32c0-5 0-9.8 0.2-14.8 0.2-5.8 0.6-11.6 1-17.2 3.6-44.4 15-88 33.6-129 23-51 56.6-96.8 98.4-135s91.2-68.4 145.2-89 111.6-31 169.6-31 115.8 10.4 169.6 31 103.2 50.6 145.2 89 75.4 84.2 98.4 135c18.6 41 29.8 84.6 33.6 129 0.4 5.4 0.8 10.6 1 16h0.4v176h128v64h-192.2v-192h-320zM434.2 576h-369.8c5 123.2 68.2 231.8 163.2 298.4l206.6-298.4zM511.6 512c0.2 0 0.2 0 0.4 0h318.4c-3.6-35.2-12.8-69.8-27.6-102.8-19.2-42.8-47.6-81.6-83.2-114.2s-78-58.6-124.6-76.4-96.6-26.6-147-26.6-100.4 9.2-147 26.8-89 43.6-124.6 76.4-64 71.4-83.2 114.2c-14.8 32.8-24.2 67.4-27.6 102.8h446zM160 64c17.673 0 32-14.327 32-32s-14.327-32-32-32v0c-17.673 0-32 14.327-32 32s14.327 32 32 32v0zM160-64c53.019 0 96 42.981 96 96s-42.981 96-96 96v0c-53.019 0-96-42.981-96-96s42.981-96 96-96v0zM704 32c0 17.673 14.327 32 32 32s32-14.327 32-32v0c0-17.673-14.327-32-32-32s-32 14.327-32 32v0zM832 32c0 53.019-42.981 96-96 96s-96-42.981-96-96v0c0-53.019 42.981-96 96-96s96 42.981 96 96v0z" />
<glyph unicode="&#xe9b7;" glyph-name="backpack" horiz-adv-x="896" d="M288 960h320v-128h32c141.4 0 256-114.6 256-256v-640h-896v640c0 141.4 114.6 256 256 256h32v128zM544 896h-192v-64h192v64zM64 576v-576h96v448h576v-448h96v576c0 106-86 192-192 192h-384c-106 0-192-86-192-192zM224 0h448v192h-448v-192zM288 640h352v-64h-384v64h32zM672 256v128h-448v-128h448z" />
<glyph unicode="&#xe9b8;" glyph-name="backward" d="M57.6 409.6l-57.6 38.4 576 384v-268.8l448 268.8v-768l-448 268.8v-268.8l-64 42.6-454.4 303zM576 407.4l384-230.4v542l-384-230.4v-81.2zM512 183.6v528.8l-396.6-264.4 396.6-264.4z" />
<glyph unicode="&#xe9b9;" glyph-name="backward-fast" d="M64 832v-308l448 308v-352l512 352v-768l-512 352v-352l-448 308v-308h-64v768h64zM448 710.4l-381.6-262.4 381.6-262.4v524.8zM578.4 448l381.6-262.4v524.8l-381.6-262.4z" />
<glyph unicode="&#xe9ba;" glyph-name="backward-step" horiz-adv-x="640" d="M128 800v32h-64v-768h64v308l448-308v768l-448-308v276zM130.4 448l381.6 262.4v-524.8l-381.6 262.4z" />
<glyph unicode="&#xe9bb;" glyph-name="bacon" horiz-adv-x="1152" d="M0 256c21 9.4 41 18.8 59.8 27.8 262.6 126 310.6 208.2 362 296.4 56.4 97 117.4 201.4 474.2 379.8l256-320c-20.4-10.2-39.6-20-58.2-29.8-305.6-160.4-362.8-258.6-416.2-350.2-55-94.4-106-182-421.6-324l-256 320zM166 151c228.4 118.6 319.2 242.6 402.2 355.8l6 8c44 59.8 88 118.8 150.4 170.6 54.8 45.6 122.8 84.8 216.2 116l-62.2 78c-145.2-75.6-231.4-135.4-287-185-59.6-53.4-85.6-96.6-112.4-142.6l-2.8-4.6c-27.6-47.2-58-99.6-123.2-157-55.2-48.6-133.2-99.4-252.6-157.6l65.4-81.6zM206.8 100l68-85c129 61 203 109.6 250 151 49.6 43.6 71.4 81 98.2 127.2l1.8 3c29.2 50 63.2 106.8 137.6 173.4 62.8 56.2 152.8 118.2 290.8 191.4l-69.6 87c-98.8-30.2-166-68.4-218-111.8-55.6-46.2-95.6-99.2-139.6-159.4l-5.6-7.8c-84-114-180.2-245.2-413.6-369z" />
<glyph unicode="&#xe9bc;" glyph-name="bacteria" horiz-adv-x="1280" d="M572.4 960l-13.6-42.2c-16.2 1.2-33 0-49.8-4-19.4-4.4-38.2-9.6-56.2-15.2l-8.6 20.2-12.4 29.4-58.8-25.2 12.6-29.4 7.2-17c-35.4-15-67.6-32.2-96.6-51l-18 29.4-16.8 27.2-54.4-33.6 16.8-27.2 20.6-33.6c-29.2-23.8-54.6-49.4-76.4-75.6l-10 7.4-25.6 19.2-38.2-51 25.6-19.2 10.2-7.6c-4.2-6.4-8.2-12.8-12.2-19.2-15.6-26-27.8-51-37.6-74.4l-23.2 11.6-28.6 14.4-28.4-57.6 28.6-14.4 30.4-15.2c-0.6-1.8-1-3.4-1.4-5.2-6.4-23.4-11.6-47.6-14-71.8-0.8-9.2-1-18.2-0.2-27.2l-42.2-13.4 19.6-61 39.2 12.8c16-32.6 42.2-59.4 74.8-76l-9.4-21.4-12.8-29.4 59-25.6 25.6 58.8c39.4-3.2 76.8 7.4 107.4 27.8l19.2-20.4 22-23.2 46.6 44-22 23.2-20.4 21.6c15 22 25 48 28 76.2 1 6.8 2.6 13.6 4.6 20.2l14.8-7 29-13.8 27.4 57.8-44.2 21c15.2 23.6 38.6 51.2 77.6 74.4l11.8-52.6 62.4 13.8-7 31.2-7.6 34.6c11.8 4 24.6 7.6 38.2 10.8 18.4 4.2 35.6 11.4 50.8 21l53.8-33.2 33.6 54.4-39.2 24.2c22.4 31.6 34 70.8 30.6 111.2l58.8 25.6-25.8 58.6-29.4-12.8-21.4-9.4c-16.8 33-43.8 59-76 74.8l12.6 39.2-61 20zM443 662.2c26.51 0 48 21.49 48 48s-21.49 48-48 48v0c-26.51 0-48-21.49-48-48s21.49-48 48-48v0zM314.4 402.8c-6.2-56.2-56.2-97.4-112.8-92.2-57.2 5.2-99.4 55.8-94.2 112.8 1.8 19.2 6.2 39.6 12 60.6 9 33 25.2 77.4 53.4 124.6 58 96.8 164.6 199.8 350.8 242.8 56 13 111.8-22 124.8-78s-22-111.8-78-124.8c-125.8-29-187.2-93.8-219.2-147.2-15.8-26.4-30.8-59.6-36.4-96-0.2-1-0.2-1.8-0.4-2.8zM702.4-57.8l13.6 42.2c16.2-1.2 33 0 49.8 4 19.4 4.4 38.2 9.6 56.2 15.2l8.6-20.2 12.6-29.4 58.8 25.2-12.6 29.4-7.2 17c35.4 15 67.6 32.2 96.6 51l18-29.4 16.8-27.2 54.4 33.6-16.8 27.2-20.6 33.6c29.2 23.8 54.4 49.4 76.2 75.6l10-7.4 25.6-19.2 38.4 51.2-25.6 19.2-10.2 7.6c4.2 6.4 8.2 12.8 12.2 19.2 15.6 26 27.8 51 37.6 74.4l23.2-11.6 28.6-14.4 28.6 57.2-28.6 14.4-30.4 15.2c0.6 1.8 1 3.4 1.4 5.2 6.4 23.4 11.6 47.6 14 71.8 0.8 9.2 1 18.2 0.2 27.2l42.2 13.6-19.6 61-39.2-12.6c-16 32.6-42.2 59.4-74.8 76l9.4 21.4 12.8 29.4-59.2 25.2-12.8-29.4-12.6-29.2c-39.4 3.2-76.8-7.4-107.4-27.8l-19.4 20.4-22 23.2-46.6-44 22-23.2 20.4-21.6c-15-22-25-48-28-76.2-1-6.8-2.6-13.6-4.6-20.2l-14.8 7-29 13.8-27.4-57.8 44.2-21c-15.2-23.6-38.6-51.2-77.6-74.4l-11.8 52.6-62.4-13.8 7-31.2 7.6-34.6c-11.8-4-24.6-7.6-38.2-10.8-18.4-4.2-35.6-11.4-50.8-21l-26.6 16.4-27 16.8-33.6-54.4 39.2-24.2c-22.4-31.6-34-70.8-30.6-111.2l-29.4-12.8-29.2-12.8 25.6-58.6 29.4 12.8 21.4 9.4c16.8-33 43.8-59 76-74.8l-12.6-39.2 61-19.6zM832 240c-26.51 0-48-21.49-48-48s21.49-48 48-48v0c26.51 0 48 21.49 48 48s-21.49 48-48 48v0zM960.6 499.2c6.2 56.2 56.2 97.4 112.8 92.2 57.2-5.2 99.4-55.8 94.2-112.8-1.8-19.2-6.2-39.6-12-60.6-9-33-25.2-77.4-53.4-124.6-58-96.8-164.6-199.8-350.8-242.8-56-13-111.8 22-124.8 78s22 111.8 78 124.8c125.8 29 187.2 93.8 219.2 147.2 15.8 26.4 30.8 59.6 36.4 96 0.2 1 0.2 1.8 0.4 2.8z" />
<glyph unicode="&#xe9bd;" glyph-name="bacterium" d="M818.6 880.2c50.6-20.2 93.4-58.4 118.2-108.8l58.2 25.8 26-58.4-64.2-28.6c10.2-58.6-3.6-116.6-34.6-163l28.6-28.6 22.4-22.6-45.2-45.2-48.8 48.8c-26-21.6-57.4-37.8-92.8-45.8-21.6-5-41.4-10.8-59.4-17.4l7.8-27.6 8.8-30.8-61.6-17.6-8.8 30.8-5.4 18.8c-60.4-33.2-95.4-74-116.8-108.6l37.6-16.2 29.4-12.6-25.2-58.6-70.4 30.2c-5.4-14.4-9.4-29.4-11.8-44.4-5-45.4-23.2-86.2-50.4-118.8l49-49-45.2-45.2-51.2 51.2c-41.2-27.6-91.8-41.8-145-37-6 0.6-12 1.4-18 2.4l-28.6-64.2-58.4 26 25.8 58.2c-45 22.2-81 59-102.4 103.6l-63.2-14-14 62.2 57.8 12.8c-3 18.2-3.6 37-2 56.2 4 37.4 11.8 75 22.8 111.8l-35.6 14.2-29.8 11.8 23.8 59.4 29.8-11.8 33-13.2c15.4 38.8 34.2 76 55 110.8 6.6 11 13.4 21.8 20.8 32.8l-28.6 23-25 20 40 50 51.8-41.4c34.2 42.6 75.4 84 124.2 122.2l-21.6 32.4-17.8 26.6 53.2 35.6 38.4-57.4c43.6 28.4 92.4 54.2 147 76l-28.2 65.8 58.8 25.2 12.6-29.4 17.2-40c25.2 8 51.6 15.4 79 21.6 23.8 5.4 47.6 7 70.8 4.8l12.4 55.8 62.4-13.8-12.6-56.8zM447.4 209.4c6.8 45 25.4 86.4 45.8 120.2 40 66.6 117.4 149.2 278.8 186.4 86.2 19.8 139.8 105.8 120 191.8s-105.8 140-192 120.2c-254.4-58.8-401.2-200.2-481.2-333.6-46.8-78.2-80.8-168.6-90.2-256.4-7.8-87.8 57-165.4 144.8-173.4 87-8 164.2 55.4 173.6 142 0 1 0.2 1.8 0.4 2.8zM432 544c0 26.51 21.49 48 48 48s48-21.49 48-48v0c0-26.51-21.49-48-48-48s-48 21.49-48 48v0zM288 320c0-17.673 14.327-32 32-32s32 14.327 32 32v0c0 17.673-14.327 32-32 32s-32-14.327-32-32v0zM320 224c-53.019 0-96 42.981-96 96s42.981 96 96 96v0c53.019 0 96-42.981 96-96s-42.981-96-96-96v0z" />
<glyph unicode="&#xe9be;" glyph-name="badge" d="M512 896c-56.6 0-106-31.8-130.8-78.8l-12.4-23.4-25.2 7.8c-50.8 15.6-108.2 3.2-148.2-36.8s-52.4-97.4-36.8-148.2l7.8-25.2-23.4-12.4c-47.2-25-79-74.4-79-131s31.8-106 78.8-130.8l23.4-12.4-7.8-25.2c-15.6-50.8-3.2-108.2 36.8-148.2s97.4-52.4 148.2-36.8l25.2 7.8 12.4-23.4c25-47.2 74.4-79 131-79s106 31.8 130.8 78.8l12.4 23.4 25.2-7.8c50.8-15.6 108.2-3.2 148.2 36.8s52.4 97.4 36.8 148.2l-7.8 25.2 23.4 12.4c47.2 25 79 74.4 79 131s-31.8 106-78.8 130.8l-23.4 12.4 7.8 25.2c15.6 50.8 3.2 108.2-36.8 148.2s-97.4 52.4-148.2 36.8l-25.2-7.8-12.4 23.4c-25 47.2-74.4 79-131 79zM337.8 868.8c38.2 55 102 91.2 174.2 91.2s136-36.2 174.2-91.2c66 12 136.6-7.6 187.8-58.8s70.6-121.8 58.8-187.8c55-38.2 91.2-102 91.2-174.2s-36.2-136-91.2-174.2c12-66-7.6-136.6-58.8-187.8s-121.8-70.6-187.8-58.8c-38.2-55-102-91.2-174.2-91.2s-136 36.2-174.2 91.2c-66-12-136.6 7.6-187.8 58.8s-70.6 121.8-58.8 187.8c-55 38.2-91.2 102-91.2 174.2s36.2 136 91.2 174.2c-12 66 7.6 136.6 58.8 187.8s121.8 70.6 187.8 58.8z" />
<glyph unicode="&#xe9bf;" glyph-name="badge-check" d="M381.2 817.2c24.8 47 74.2 78.8 130.8 78.8s106-31.8 130.8-78.8l12.4-23.4 25.2 7.8c50.8 15.6 108.2 3.2 148.2-36.8s52.4-97.4 36.8-148.2l-7.8-25.2 23.4-12.4c47.2-25 79-74.4 79-131s-31.8-106-78.8-130.8l-23.4-12.4 7.8-25.2c15.6-50.8 3.2-108.2-36.8-148.2s-97.4-52.4-148.2-36.8l-25.2 7.8-12.4-23.4c-25-47.2-74.4-79-131-79s-106 31.8-130.8 78.8l-12.4 23.4-25.2-7.8c-50.8-15.6-108.2-3.2-148.2 36.8s-52.4 97.4-36.8 148.2l7.8 25.2-23.4 12.4c-47.2 25-79 74.4-79 131s31.8 106 78.8 130.8l23.4 12.4-7.8 25.2c-15.6 50.8-3.2 108.2 36.8 148.2s97.4 52.4 148.2 36.8l25.2-7.8 12.4 23.4zM512 960c-72.2 0-136-36.2-174.2-91.2-66 12-136.6-7.6-187.8-58.8s-70.6-121.8-58.8-187.8c-55-38.2-91.2-102-91.2-174.2s36.2-136 91.2-174.2c-12-66 7.6-136.6 58.8-187.8s121.8-70.6 187.8-58.8c38.2-55 102-91.2 174.2-91.2s136 36.2 174.2 91.2c66-12 136.6 7.6 187.8 58.8s70.6 121.8 58.8 187.8c55 38.2 91.2 102 91.2 174.2s-36.2 136-91.2 174.2c12 66-7.6 136.6-58.8 187.8s-121.8 70.6-187.8 58.8c-38.2 55-102 91.2-174.2 91.2zM726.6 553.4l22.6 22.6-45.2 45.2-256-256-128 128-45.2-45.2 173.2-173.2 278.6 278.6z" />
<glyph unicode="&#xe9c0;" glyph-name="badge-dollar" d="M381.2 817.2c24.8 47 74.2 78.8 130.8 78.8s106-31.8 130.8-78.8l12.4-23.4 25.2 7.8c50.8 15.6 108.2 3.2 148.2-36.8s52.4-97.4 36.8-148.2l-7.8-25.2 23.4-12.4c47.2-25 79-74.4 79-131s-31.8-106-78.8-130.8l-23.4-12.4 7.8-25.2c15.6-50.8 3.2-108.2-36.8-148.2s-97.4-52.4-148.2-36.8l-25.2 7.8-12.4-23.4c-25-47.2-74.4-79-131-79s-106 31.8-130.8 78.8l-12.4 23.4-25.2-7.8c-50.8-15.6-108.2-3.2-148.2 36.8s-52.4 97.4-36.8 148.2l7.8 25.2-23.4 12.4c-47.2 25-79 74.4-79 131s31.8 106 78.8 130.8l23.4 12.4-7.8 25.2c-15.6 50.8-3.2 108.2 36.8 148.2s97.4 52.4 148.2 36.8l25.2-7.8 12.4 23.4zM512 960c-72.2 0-136-36.2-174.2-91.2-66 12-136.6-7.6-187.8-58.8s-70.6-121.8-58.8-187.8c-55-38.2-91.2-102-91.2-174.2s36.2-136 91.2-174.2c-12-66 7.6-136.6 58.8-187.8s121.8-70.6 187.8-58.8c38.2-55 102-91.2 174.2-91.2s136 36.2 174.2 91.2c66-12 136.6 7.6 187.8 58.8s70.6 121.8 58.8 187.8c55 38.2 91.2 102 91.2 174.2s-36.2 136-91.2 174.2c12 66-7.6 136.6-58.8 187.8s-121.8 70.6-187.8 58.8c-38.2 55-102 91.2-174.2 91.2zM545.8 661.4v32h-64v-55.8c-15.2-2.2-29.8-6.4-42.8-12.4-30.6-13.8-55.8-39-62-74.6-3.6-20.6-1.6-39.8 6.6-57 8-17 20.8-29.2 34.2-38.4 24-16.4 56.4-26 82.8-34l4.4-1.4c30.4-9.2 53.6-16.8 68.8-27.8 6.8-5 10.4-9.6 12.4-14.2 1.8-4.4 3.2-11 1.4-22-2.2-12.6-9.8-22.2-25-28.8-16.4-7-40.8-9.8-70.8-5-14.6 2.4-39.8 11-61 18.2v0 0c-4.8 1.6-9.4 3.2-13.4 4.6l-30.4 10.2-20.2-60.8 30.4-10.2c2.8-1 6.4-2.2 10.4-3.6 20.6-7 53.6-18.4 74-21.6v0h0.4v-56.4h64v55.2c14.8 1.8 29 5.4 41.8 11 31.8 13.6 56.4 39.2 63 76.8 3.6 21 2 40.6-5.8 58.4-7.6 17.6-20 30.6-33.4 40.4-25.2 18.4-59.4 28.8-87 37l-1 0.2c-30.8 9.2-54.4 16.6-69.8 27-7 4.8-10.6 9-12.2 12.8-1.6 3.4-3 9-1.4 18.6 1.6 9.4 8.6 19.6 25.4 27.2 17 7.6 41.6 11.2 70.6 6.8 9.8-1.6 40.4-7.4 49.6-10l31-8.2 16.4 61.8-31.2 8.2c-12.2 3.2-45.2 9.6-56 11.4h-0.2v24.4z" />
<glyph unicode="&#xe9c1;" glyph-name="badge-percent" d="M381.2 817.2c24.8 47 74.2 78.8 130.8 78.8s106-31.8 130.8-78.8l12.4-23.4 25.2 7.8c50.8 15.6 108.2 3.2 148.2-36.8s52.4-97.4 36.8-148.2l-7.8-25.2 23.4-12.4c47.2-25 79-74.4 79-131s-31.8-106-78.8-130.8l-23.4-12.4 7.8-25.2c15.6-50.8 3.2-108.2-36.8-148.2s-97.4-52.4-148.2-36.8l-25.2 7.8-12.4-23.4c-25-47.2-74.4-79-131-79s-106 31.8-130.8 78.8l-12.4 23.4-25.2-7.8c-50.8-15.6-108.2-3.2-148.2 36.8s-52.4 97.4-36.8 148.2l7.8 25.2-23.4 12.4c-47.2 25-79 74.4-79 131s31.8 106 78.8 130.8l23.4 12.4-7.8 25.2c-15.6 50.8-3.2 108.2 36.8 148.2s97.4 52.4 148.2 36.8l25.2-7.8 12.4 23.4zM512 960c-72.2 0-136-36.2-174.2-91.2-66 12-136.6-7.6-187.8-58.8s-70.6-121.8-58.8-187.8c-55-38.2-91.2-102-91.2-174.2s36.2-136 91.2-174.2c-12-66 7.6-136.6 58.8-187.8s121.8-70.6 187.8-58.8c38.2-55 102-91.2 174.2-91.2s136 36.2 174.2 91.2c66-12 136.6 7.6 187.8 58.8s70.6 121.8 58.8 187.8c55 38.2 91.2 102 91.2 174.2s-36.2 136-91.2 174.2c12 66-7.6 136.6-58.8 187.8s-121.8 70.6-187.8 58.8c-38.2 55-102 91.2-174.2 91.2zM717.2 608l-45.2 45.2-365.2-365.2 45.2-45.2 365.2 365.2zM384 528c26.51 0 48 21.49 48 48s-21.49 48-48 48v0c-26.51 0-48-21.49-48-48s21.49-48 48-48v0zM640 272c26.51 0 48 21.49 48 48s-21.49 48-48 48v0c-26.51 0-48-21.49-48-48s21.49-48 48-48v0z" />
<glyph unicode="&#xe9c2;" glyph-name="badger-honey" horiz-adv-x="1280" d="M840.4 832h158.2l6.2-2.6 275.2-120.4v-162.2l-82.8-82.8h-13.2c-10.6 0-21.4-0.4-32-1.2v-78.8h-64v70.2c-106.6-21.2-205-73.6-273.2-124.2l55-330h-241l-4.4 26.8-38.2 229.2h-188l-28.2-66 44.6-148.8 12.4-41.2h-242.8l-6.8 22.8-48 160-2.6 9 2.6 9 22.2 77.6c-33.8 15-63.6 37-87.6 64.2v-54.6h-64v224c0 141.4 114.6 256 256 256h456.4l128 64zM199.6 328.4l30-9.2-8.6-30.2-27.6-96.8 38.4-128.2h109.2l-35.6 118.8-3.4 11.2 4.6 10.6 41.2 96 8.2 19.4h284.6l4.4-26.8 38.2-229.2h111.2l-46 274.6-3.2 18.6 14.8 11.8c91.2 71.8 245.8 154.6 410.4 158.8l45.6 45.4v50.8h-192.8c0.6-2.6 0.8-5.2 0.8-8 0-22-18-40-40-40s-40 18-40 40c0 2.8 0.2 5.4 0.8 8h-105l-336-176h-71.8c-136.6 0-249.8 100.8-269 232-59-32.8-99-95.8-99-168 0-86.4 57-159.6 135.6-183.6zM855.6 768l-128-64h-471.6c-10.6 0-21-0.8-31.2-2.6 9.4-106.2 98.6-189.4 207.2-189.4h56.2l336 176h344l-182.8 80h-129.8z" />
<glyph unicode="&#xe9c3;" glyph-name="badge-sheriff" horiz-adv-x="896" d="M498.8 793l-26.2-34 21.6-37.2 56.2-96.6 36.6-0.2 107.2-0.4 18.6 31.8c5.4 9.2 13.2 17.2 23.2 23 30.6 17.6 69.8 7.2 87.4-23.4s7.2-69.8-23.4-87.4c-12.4-7.2-25.8-9.6-38.8-8.2l-41.6 4.6-20.8-36.4-27.8-48.8-18.4-31.8 18.2-31.8 27.8-48.8 20.8-36.4 41.6 4.6c13 1.4 26.6-1.2 38.8-8.2 30.6-17.6 41.2-56.8 23.4-87.4s-56.8-41.2-87.4-23.4c-10 5.8-17.8 13.8-23.2 23l-18.6 31.8-36.8-0.2-107-0.4-18.2-31.6-37.8-64.8-21.6-37.2 26.2-34c8.4-10.8 13.2-24.2 13.2-39 0-35.4-28.6-64-64-64s-64 28.6-64 64c0 14.8 5 28.2 13.2 39l26.2 34-21.6 37.2-37.8 64.8-18.4 31.6-36.6 0.2-107.2 0.4-18.6-31.8c-5.4-9.2-13.2-17.2-23.2-23v0c-30.6-17.6-69.8-7.2-87.4 23.4s-7.2 69.8 23.4 87.4c12.2 7 25.8 9.6 38.8 8.2l41.6-4.6 20.8 36.4 27.8 48.8 18.2 31.8-18.2 31.8-27.8 48.8-20.8 36.2-41.6-4.6c-13-1.4-26.6 1.2-38.8 8.2-30.6 17.6-41 56.8-23.4 87.4s56.8 41 87.4 23.4c10-5.8 17.8-13.8 23.2-23l18.6-31.8 36.8 0.2 107 0.4 18.4 31.6 37.8 64.8 21.6 37.2-26.2 34c-8.2 11.2-13.2 24.6-13.2 39.4 0 35.4 28.6 64 64 64s64-28.6 64-64c0-14.8-5-28.2-13.2-39zM17.2 208c35.4-61.2 113.6-82.2 174.8-46.8 20 11.4 35.6 27.6 46.4 46l70.4-0.2 37.8-65c-16.6-21.6-26.6-48.6-26.6-78 0-70.6 57.4-128 128-128s128 57.4 128 128c0 29.4-10 56.4-26.6 78l37.8 64.8 70.4 0.2c10.8-18.6 26.4-34.6 46.4-46 61.2-35.4 139.6-14.4 174.8 46.8s14.4 139.6-46.8 174.8c-24.4 14.2-51.6 19.2-77.8 16.4l-27.8 49 27.8 48.8c26-2.8 53.2 2.2 77.8 16.4 61.2 35.4 82.2 113.6 46.8 174.8s-113.6 82.2-174.8 46.8c-20-11.4-35.6-27.6-46.4-46l-70.4 0.2-37.8 65c16.6 21.6 26.6 48.6 26.6 78 0 70.6-57.4 128-128 128s-128-57.4-128-128c0-29.4 10-56.4 26.6-78l-37.8-64.8-70.4-0.2c-10.8 18.6-26.4 34.6-46.4 46-61.2 35.2-139.4 14.2-174.8-47s-14.4-139.6 46.8-174.8c24.4-14.2 51.6-19.2 77.8-16.4l27.8-48.8-27.8-48.8c-26 2.8-53.2-2.4-77.8-16.4-61.2-35.2-82.2-113.6-46.8-174.8zM470.6 582.6l-22.6 22.6-157.2-157.2 157.2-157.2 157.2 157.2-134.6 134.6zM448 381.2l-66.8 66.8 66.8 66.8 66.8-66.8-66.8-66.8z" />
<glyph unicode="&#xe9c4;" glyph-name="badminton" horiz-adv-x="1152" d="M698 896c71 0 138-24.4 187.8-74.2s74.2-116.8 74.2-187.8c0-90.2-39.2-186.8-115.2-262.8-136.2-136.2-337.8-153.8-450.6-41-49.8 49.8-74.2 116.8-74.2 187.8 0 90.2 39.2 186.8 115.2 262.8s172.6 115.2 262.8 115.2zM698 960c-108.4 0-221-46.8-308-133.8s-134-199.6-133.8-308c0-75.4 22.8-149.4 71.4-209.4l-62-62-12.2 12.2-45.4 45-208-208 160-160 208 208-57.4 57.4 62 62c147-120.2 372.8-82.2 517.4 62.4 87.2 87.2 134 199.6 133.8 308 0 85.6-29.6 169.8-93 233.2s-147.2 93-232.8 93zM208 213.4l69.4-69.4-117.4-117.4-69.4 69.4 117.4 117.4zM917.8 32l-13-46-8.8-30.8 61.6-17.6 8.8 30.8 18 63.6h-66.6zM992 32v-96h64v96h-64zM1063.6 32l18-63.6 8.8-30.8 61.6 17.6-8.6 30.8-13 46h-66.8zM992 160c0 17.6 14.4 32 32 32s32-14.4 32-32v-32h-64v32zM1120 160c0 53-43 96-96 96s-96-43-96-96v-96h192v96z" />
<glyph unicode="&#xe9c5;" glyph-name="bagel" horiz-adv-x="1280" d="M1216 544c0 194.4-157.6 352-352 352-98.6 0-187.8-40.6-251.6-105.8-21 9.4-42.6 17.4-65 23.6 76.2 89.4 189.8 146.2 316.6 146.2 229.8 0 416-186.2 416-416s-186.2-416-416-416c-7.8 0-15.4 0.2-23 0.6 10.8 20.4 20 41.4 27.8 63.4 192.2 2.6 347.2 159.2 347.2 352zM685.4 790l98 2.8 80.6 55.2 80.8-55.4 97.8-2.6 32.8-92.2 77.8-59.8-27.6-94 27.6-94-77.6-59.8-33-92.2-97.8-2.8-58.6-40.2c5.6 27.2 8.8 55.4 9.6 84.2l12.8 8.8 15.6 10.6 18.8 0.6 54 1.4 18.2 51 6.4 17.8 15 11.6 42.8 33-15.4 52-5.4 18 5.4 18 15.2 51.8-57.8 44.6-6.4 17.8-18.2 51-54 1.4-18.8 0.6-15.6 10.6-44.4 30.6-44.6-30.6-15.6-10.6-18.8-0.6-54-1.4-3.6-9.8c-17 14.4-35 27.8-53.8 39.8l11.8 32.8zM768 352c0 194.404-157.596 352-352 352s-352-157.596-352-352v0c0-194.404 157.596-352 352-352s352 157.596 352 352v0zM0 352c0 229.75 186.25 416 416 416s416-186.25 416-416v0c0-229.75-186.25-416-416-416s-416 186.25-416 416v0zM416 512c88.366 0 160-71.634 160-160s-71.634-160-160-160v0c-88.366 0-160 71.634-160 160s71.634 160 160 160v0zM512 352c0 53.019-42.981 96-96 96s-96-42.981-96-96v0c0-53.019 42.981-96 96-96s96 42.981 96 96v0zM256 576l32 32 32-32-32-32-32 32zM640 448l-32 32 32 32 32-32-32-32zM224 128l-32 32 32 32 32-32-32-32zM480 64l-32 32 32 32 32-32-32-32zM576 160l32 32 32-32-32-32-32 32zM160 384l-32 32 32 32 32-32-32-32z" />
<glyph unicode="&#xe9c6;" glyph-name="bag-seedling" d="M178 768h668l25.2-100.6c16.4-66 24.8-133.8 24.8-201.8v-35.4c0-68-8.4-135.8-24.8-201.8l-25.2-100.4h-668l-25.2 100.6c-16.4 66-24.8 133.6-24.8 201.8v35.2c0 68 8.4 135.8 24.8 201.8l25.2 100.6zM849.8 832h-675.6l-21.4 64h718.4l-21.4-64zM174.2 64h675.6l21.4-64h-718.4l21.4 64zM64 960l21.4-64 33.4-100.6-28-112.4c-17.8-71-26.8-144-26.8-217.4v-35.4c0-73.2 9-146.2 26.8-217.4l28.2-112.4-55-164.4h896l-21.4 64-33.6 100.6 28.2 112.4c17.8 71 26.8 144 26.8 217.4v35.2c0 73.2-9 146.2-26.8 217.4l-28 112.4 33.4 100.6 21.4 64h-896zM256 640v-64c0-130.6 97.8-238.2 224-254v-98h64v98c126.2 15.8 224 123.4 224 254v64h-78.6c-74.4 0-137.8-35.8-177.4-89-39.6 53.2-103 89-177.4 89h-78.6zM544 386.6v92.6c23.4 55.8 78.2 96.8 145.4 96.8h14.6c0-95.2-69.2-174.2-160-189.4zM480 479v-92.4c-90.8 15.2-160 94.2-160 189.4h14.6c67.2 0 122-41 145.4-96.8z" />
<glyph unicode="&#xe9c7;" glyph-name="bag-shopping" horiz-adv-x="896" d="M320 768v-64h256v64c0 70.6-57.4 128-128 128s-128-57.4-128-128zM256 640h-192v-640h768v640h-192v-192h-64v192h-256v-192h-64v192zM256 704v64c0 106 86 192 192 192s192-86 192-192v-64h256v-768h-896v768h256z" />
<glyph unicode="&#xe9c8;" glyph-name="bags-shopping" horiz-adv-x="1152" d="M320 768c0 70.6 57.4 128 128 128s128-57.4 128-128v-128h-256v128zM256 640h-256v-640h320v64h-256v512h768v-64h64v128h-256v128c0 106-86 192-192 192s-192-86-192-192v-128zM448 384h640v-384h-640v384zM384 448v-512h768v512h-768zM640 288v32h-64v-64c0-106 86-192 192-192s192 86 192 192v64h-64v-64c0-70.6-57.4-128-128-128s-128 57.4-128 128v32z" />
<glyph unicode="&#xe9c9;" glyph-name="baguette" horiz-adv-x="1280" d="M1183.8 810.4c-58.8 88.2-178 112-266.2 53.2l-158.4-105.6 118-118-45.2-45.2-127.2 127.2-176-117.4 102-102 22.4-22.6-45.2-45.2-133.6 133.6-176-117.4 108.4-108.4 22.4-22.6-45.2-45.2-140 140-94.6-63c-88.2-58.8-112-178-53.2-266.2s178-112 266.2-53.2l768 512c88.2 58.8 112 178 53.2 266.2zM1237 846c78.4-117.6 46.6-276.6-71-355l-768-512c-117.6-78.4-276.6-46.6-355 71s-46.6 276.6 71 355l768 512c117.6 78.4 276.6 46.6 355-71z" />
<glyph unicode="&#xe9ca;" glyph-name="bahai" horiz-adv-x="1152" d="M642 725.2l-32.8 116.6-33.2 118.2-33.2-118.2-32.8-116.6-18.2-65-56 37.8-101.6 69-102.8 69.4 52.2-112.4 50.4-108.8 28.6-61.6-314.6-29.8 285.2-133.8-48-48.2-173.6-173.6 306 78-5.6-67.6-9.6-120-9.8-122.6 72.2 99.6 71.6 99 39.6 54.6 39.6-54.6 71.6-99 72.2-99.6-9.8 122.8-9.6 120-5.4 67.2 305.8-78.2-88.4 88.6-85 85-48 48.2 285 134.2-314.6 29.6 28.6 61.6 50.4 109 52.2 112.6-260.2-176.4-18.4 65zM765.6 654.4l-34.2-74-38-82 171.2-16.2-73-34.2-82.4-38.8 121.4-121.4-80.2 20.2-86.8 22.2 7.2-89.2 6.6-82.6-49.6 68.4-51.8 71.6-51.8-71.6-49.6-68.4 6.6 82.6 7.2 89.2-167-42.6 121.4 121.4-82.4 38.8-73 34.2 81.2 7.6 90 8.6-38 82-34.2 74 69.6-47 73.4-49.8 24 85.4 22.6 81 22.8-80.8 24-85.4 73.4 49.8 69.6 47z" />
</font>
</defs>
</svg>
